<svg width="64" height="67" viewBox="0 0 64 67" fill="none" xmlns="http://www.w3.org/2000/svg">
<path d="M21.008 52.4043C20.4283 52.4043 19.8873 52.6024 19.4512 52.9461C21.8306 54.0415 24.497 54.659 27.3015 54.659H37.2275C40.0375 54.659 42.6985 54.0415 45.0834 52.9461C44.6417 52.6024 44.1062 52.4043 43.521 52.4043H21.008Z" fill="white"/>
<path d="M27.3034 55.7038C24.234 55.7038 21.3301 55.0046 18.7465 53.7578C18.5091 54.1773 18.3711 54.6667 18.3711 55.1911V59.9045H46.1618V55.1911C46.1618 54.6667 46.0294 54.1773 45.7864 53.7578C43.2083 55.0046 40.299 55.7038 37.2295 55.7038H27.3034Z" fill="white"/>
<path d="M28.2947 20.0911C28.2947 17.7781 30.0779 15.902 32.264 15.902C34.4557 15.902 36.2389 17.7781 36.2389 20.0911V21.6642C36.2389 23.9714 34.4557 25.8532 32.264 25.8532C30.0779 25.8532 28.2947 23.9714 28.2947 21.6642V20.0911ZM26.3128 46.28H38.2208C39.0434 46.28 39.7114 45.575 39.7114 44.7127V12.7559H24.8223V44.7127C24.8223 45.575 25.4903 46.28 26.3128 46.28Z" fill="white"/>
<mask id="mask0_299_779" style="mask-type:luminance" maskUnits="userSpaceOnUse" x="23" y="0" width="18" height="12">
<path d="M23.957 0.714844L40.9163 0.714844V11.7322H23.957V0.714844Z" fill="white"/>
</mask>
<g mask="url(#mask0_299_779)">
<path d="M33.2662 1.298L32.3774 0.831899C32.3443 0.814421 32.3057 0.808594 32.267 0.808594C32.2284 0.808594 32.1897 0.814421 32.1566 0.831899L31.2733 1.298C27.4641 3.30805 25.035 7.26406 24.8418 11.7153H39.6978C39.499 7.26406 37.0755 3.30805 33.2662 1.298Z" fill="white"/>
</g>
<path d="M32.2647 24.8049C33.9098 24.8049 35.2458 23.395 35.2458 21.6646V20.0915C35.2458 18.3553 33.9098 16.9512 32.2647 16.9512C30.6251 16.9512 29.2891 18.3553 29.2891 20.0915V21.6646C29.2891 23.395 30.6251 24.8049 32.2647 24.8049Z" fill="white"/>
<path d="M16.3812 46.282H24.3309C24.0107 45.845 23.8285 45.2973 23.8285 44.7147V43.6602H14.8906V44.7147C14.8906 45.577 15.5641 46.282 16.3812 46.282Z" fill="white"/>
<path d="M23.8285 27.4609L21.9073 29.4652L15.9064 35.74C15.2605 36.4159 14.8906 37.3597 14.8906 38.3269V42.615H23.8285V27.4609Z" fill="white"/>
<path d="M49.6378 44.7147V43.6602H40.7055V44.7147C40.7055 45.2973 40.5178 45.845 40.2031 46.282H48.1473C48.9699 46.282 49.6378 45.577 49.6378 44.7147Z" fill="white"/>
<path d="M49.6413 38.3282C49.6413 37.361 49.2714 36.4172 48.62 35.7355L42.7019 29.4665L40.709 27.3516V42.6163H49.6413V38.3282Z" fill="white"/>
<mask id="mask1_299_779" style="mask-type:luminance" maskUnits="userSpaceOnUse" x="45" y="0" width="19" height="21">
<path d="M45.1543 0.714844L63.5324 0.714844V20.6813H45.1543V0.714844Z" fill="white"/>
</mask>
<g mask="url(#mask1_299_779)">
<path d="M48.1483 6.47698C48.1483 6.28472 48.2422 6.11576 48.3968 6.02254L54.348 2.35201C54.5026 2.25879 54.6958 2.25879 54.8504 2.35201L60.8071 6.02254C60.9617 6.11576 61.05 6.28472 61.05 6.47698V13.8064C61.05 13.9928 60.9617 14.1618 60.8071 14.2608L54.8504 17.9255C54.7786 17.978 54.6903 17.9954 54.6019 17.9954C54.5191 17.9954 54.4308 17.978 54.348 17.9255L48.3968 14.2608C48.2422 14.1618 48.1483 13.9928 48.1483 13.8064V6.47698ZM54.6019 19.5685C59.5263 19.5685 63.5343 15.3387 63.5343 10.1417C63.5343 4.94469 59.5263 0.714844 54.6019 0.714844C49.6775 0.714844 45.6641 4.94469 45.6641 10.1417C45.6641 15.3387 49.6775 19.5685 54.6019 19.5685Z" fill="white"/>
</g>
<path d="M51.1225 10.1414C51.1225 8.11388 52.6849 6.47671 54.6005 6.47671C56.5162 6.47671 58.073 8.11388 58.073 10.1414C58.073 12.1631 56.5162 13.8061 54.6005 13.8061C52.6849 13.8061 51.1225 12.1631 51.1225 10.1414ZM60.0604 13.5031V6.77384L54.6005 3.41211L49.1406 6.77384V13.5031L54.6005 16.8649L60.0604 13.5031Z" fill="white"/>
<path d="M57.0802 10.1413C57.0802 8.69643 55.9706 7.51953 54.6015 7.51953C53.2324 7.51953 52.1172 8.69643 52.1172 10.1413C52.1172 11.5862 53.2324 12.7573 54.6015 12.7573C55.9706 12.7573 57.0802 11.5862 57.0802 10.1413Z" fill="white"/>
<mask id="mask2_299_779" style="mask-type:luminance" maskUnits="userSpaceOnUse" x="0" y="60" width="13" height="7">
<path d="M0.996094 60.9512H12.6501V66.7133H0.996094V60.9512Z" fill="white"/>
</mask>
<g mask="url(#mask2_299_779)">
<path d="M10.4253 60.9512H2.48666C1.66409 60.9512 0.996094 61.6561 0.996094 62.5184V65.1402C0.996094 66.0083 1.66409 66.7133 2.48666 66.7133H10.4253C11.2479 66.7133 11.9159 66.0083 11.9159 65.1402V62.5184C11.9159 61.6561 11.2479 60.9512 10.4253 60.9512Z" fill="white"/>
</g>
<path d="M4.74792 34.7155C5.22821 35.0709 5.81892 35.2806 6.45379 35.2806C8.09341 35.2806 9.4294 33.8707 9.4294 32.1403C9.4294 31.0042 8.86077 30.0137 8.0106 29.4661C7.55791 29.1689 7.02241 28.9941 6.45379 28.9941C5.87964 28.9941 5.34966 29.1689 4.89145 29.4661C4.04128 30.0137 3.47266 31.0042 3.47266 32.1403C3.47266 33.2007 3.97503 34.1445 4.74792 34.7155Z" fill="white"/>
<path d="M4.9668 36.0215V59.9032H7.94241V36.0215C7.48419 36.2196 6.98182 36.3303 6.45736 36.3303C5.9329 36.3303 5.42501 36.2196 4.9668 36.0215Z" fill="white"/>
<mask id="mask3_299_779" style="mask-type:luminance" maskUnits="userSpaceOnUse" x="52" y="60" width="12" height="7">
<path d="M52.2227 60.9512H63.5344V66.7133H52.2227V60.9512Z" fill="white"/>
</mask>
<g mask="url(#mask3_299_779)">
<path d="M62.0444 60.9512H54.1058C53.2832 60.9512 52.6152 61.6561 52.6152 62.5184V65.1402C52.6152 66.0083 53.2832 66.7133 54.1058 66.7133H62.0444C62.867 66.7133 63.535 66.0083 63.535 65.1402V62.5184C63.535 61.6561 62.867 60.9512 62.0444 60.9512Z" fill="white"/>
</g>
<path d="M61.0508 32.1403C61.0508 31.0042 60.4877 30.0137 59.6376 29.4661C59.1793 29.1689 58.6438 28.9941 58.0752 28.9941C57.5011 28.9941 56.9711 29.1689 56.5129 29.4661C55.6627 30.0196 55.0996 31.01 55.0996 32.1403C55.0996 33.8707 56.4356 35.2806 58.0752 35.2806C59.7204 35.2806 61.0508 33.8707 61.0508 32.1403Z" fill="white"/>
<path d="M56.5859 36.0215V59.9032H59.5671V36.0215C59.1089 36.2196 58.601 36.3303 58.0765 36.3303C57.552 36.3303 57.0441 36.2196 56.5859 36.0215Z" fill="white"/>
<path d="M18.961 53.4285L18.9665 53.4227C19.1708 53.1605 19.0879 52.776 18.7954 52.6245C13.606 49.9852 9.87405 45.0096 9.09012 39.1484H8.93555V42.7141C8.93555 42.7782 8.95211 42.8423 8.96867 42.9005C10.5807 47.5207 13.9869 51.3427 18.3758 53.5742C18.5745 53.6732 18.823 53.615 18.961 53.4285Z" fill="white"/>
<path d="M55.5913 42.7141V39.1484H55.4423C54.6583 45.0096 50.9264 49.9852 45.737 52.6245C45.4444 52.776 45.3616 53.1605 45.5659 53.4227L45.5714 53.4285C45.7149 53.615 45.9578 53.6732 46.1621 53.5742C50.5455 51.3427 53.9517 47.5207 55.5582 42.9005C55.5803 42.8423 55.5913 42.7782 55.5913 42.7141Z" fill="white"/>
<mask id="mask4_299_779" style="mask-type:luminance" maskUnits="userSpaceOnUse" x="15" y="60" width="35" height="7">
<path d="M15.4766 60.9512H49.3952V66.7133H15.4766V60.9512Z" fill="white"/>
</mask>
<g mask="url(#mask4_299_779)">
<path d="M46.6578 60.9512H17.8679C17.0508 60.9512 16.3828 61.6561 16.3828 62.5184V65.1402C16.3828 66.0083 17.0508 66.7133 17.8679 66.7133H46.6578C47.4804 66.7133 48.1484 66.0083 48.1484 65.1402V62.5184C48.1484 61.6561 47.4804 60.9512 46.6578 60.9512Z" fill="white"/>
</g>
</svg>
