<svg width="69" height="43" viewBox="0 0 69 43" fill="none" xmlns="http://www.w3.org/2000/svg">
<path d="M7.71019 2.36929L5.98397 3.50998L5.91545 3.99015C5.69864 5.53518 5.63324 5.93848 5.47234 6.62488C5.24219 7.63742 5.10497 9.29068 5.18739 10.1899C5.26084 11.1378 5.50858 12.2748 5.85369 13.2548C6.0978 13.9646 7.98859 18.4161 8.20413 18.7958C8.31525 18.9893 8.17612 19.3126 7.30916 20.8382C6.64593 22.0011 6.60701 22.0975 6.5365 22.6266C6.50304 22.9332 6.41514 23.5456 6.34134 23.9836C6.27452 24.4218 6.18805 24.9992 6.14959 25.2566L6.08834 25.7301L6.43142 25.5551C6.61737 25.4577 6.81087 25.3465 6.8612 25.3136C6.9546 25.2544 6.9479 25.2471 7.06822 25.9029C7.14144 26.3399 7.13831 26.4167 7.01452 26.3627C6.95947 26.3395 6.88818 26.3716 6.85068 26.433C6.7908 26.5286 6.74916 26.5199 6.45408 26.3749C6.27552 26.2907 6.11765 26.2143 6.11066 26.214C6.09668 26.2134 6.06276 26.359 6.02771 26.5326C5.98339 26.7617 5.99254 26.8811 6.066 26.9681C6.11906 27.0402 6.18626 27.2809 6.22608 27.5065C6.30203 28.0486 6.30175 28.0556 6.1587 27.9588C6.05644 27.8916 5.89345 27.941 5.24477 28.2296L4.45322 28.5893L4.39907 28.8881C4.37129 29.055 4.32271 29.389 4.28453 29.6394C4.24635 29.8898 4.18692 30.1464 4.15641 30.2081C4.11863 30.2766 3.38621 31.2477 2.52875 32.3677C1.6268 33.5489 0.980783 34.4606 0.991917 34.531C1.00305 34.6015 1.08463 34.6608 1.20286 34.6796C1.3767 34.7077 1.39124 34.6942 1.40204 34.4287C1.41255 34.1702 1.43465 34.1431 1.5814 34.149C1.72115 34.1547 1.75779 34.1142 1.79342 33.9267L1.83046 33.7042L1.82836 33.9281C1.83438 34.1243 1.86091 34.1604 2.00765 34.1664C2.18234 34.1735 2.18206 34.1805 2.15677 34.8024C2.13148 35.4243 2.1312 35.4313 1.96349 35.4244C1.85868 35.4202 1.77982 35.466 1.75602 35.535C1.72323 35.6527 1.71625 35.6524 1.71409 35.5333C1.71023 35.4561 1.65603 35.4119 1.54423 35.4074C1.39049 35.4011 1.37095 35.3654 1.35493 35.0707L1.34761 34.7345L1.31886 35.0973C1.29039 35.4531 1.28284 35.4668 1.09417 35.4591C0.989349 35.4548 0.86499 35.4148 0.831471 35.3784C0.777842 35.3202 0.72074 35.8639 0.641075 37.1345C0.579195 38.1399 0.531406 38.9709 0.537826 38.9851C0.544529 38.9924 0.9484 39.0438 1.42186 39.1051C2.85652 39.2824 3.97485 39.3209 4.70641 39.2316C5.07233 39.1835 5.92967 39.0994 6.60362 39.0498C7.7553 38.9566 8.59866 38.872 9.70984 38.7422C9.97009 38.7107 10.2082 38.7064 10.2423 38.7288C10.2901 38.7587 10.5151 38.7329 11.0659 38.6153C11.1433 38.6045 11.3966 38.5728 11.6286 38.5472C11.8606 38.5216 12.1773 38.4785 12.3322 38.4568L12.6143 38.4053L12.3722 38.3325C12.2409 38.2921 12.0676 38.2501 11.9913 38.233C11.9147 38.2229 11.3664 38.1096 10.7764 37.9876C10.1862 37.8726 9.58918 37.7503 9.45727 37.724C9.03385 37.6368 8.5029 37.4402 8.39535 37.3308C8.34173 37.2727 8.25287 37.22 8.19697 37.2178C8.14107 37.2155 8.07988 37.171 8.06091 37.1212C7.64989 36.0406 7.39522 35.2464 7.42629 35.1706C7.44953 35.1156 7.74836 34.6518 8.0981 34.141C8.63447 33.3439 8.85461 33.0939 9.66907 32.3431C10.585 31.5054 10.6144 31.4716 10.4644 31.3745C10.321 31.2847 10.328 31.285 10.5293 31.3282C10.7165 31.3708 10.7811 31.3314 11.1744 30.9554C11.4079 30.72 11.6647 30.4294 11.7327 30.3062C11.8228 30.1559 11.9095 30.0894 12.0213 30.094C12.1331 30.0985 12.5238 29.7854 13.3528 29.0212L14.5236 27.9419L16.1119 28.3005C17.8527 28.6933 19.4999 29.1522 20.4651 29.5134C21.1959 29.7881 21.6876 30.0881 22.6227 30.847C23.5035 31.5618 23.6944 31.6885 23.918 31.6976C24.1486 31.707 24.5935 31.4381 25.317 30.8586L25.9101 30.3858L28.4041 31.5371L30.891 32.6881L31.0944 32.5074L31.2904 32.3334L34.0552 33.8807L36.8131 35.4277L37.1929 36.759C37.4079 37.4957 37.5777 38.1395 37.576 38.1814C37.574 38.2303 37.5164 38.27 37.4465 38.2672C37.3766 38.2643 37.2844 38.2956 37.2335 38.3425C37.1826 38.3894 37.1471 38.402 37.1479 38.381C37.1491 38.3531 36.9022 38.399 36.6047 38.4849C36.2793 38.5697 35.7093 38.6445 35.2115 38.6662C34.0752 38.725 33.534 38.78 33.3556 38.8637C33.2771 38.9025 32.82 38.9539 32.3504 38.9699C31.8736 38.9925 31.3123 39.0256 31.1015 39.0451L30.7152 39.0783L31.2009 39.1821C31.4714 39.2421 31.7356 39.2878 31.7912 39.2971C31.8468 39.3063 32.223 39.3496 32.6269 39.4011C33.4069 39.4958 34.3041 39.6372 35.0545 39.7727C35.3116 39.8182 35.6046 39.8441 35.6963 39.8268C35.8581 39.8054 36.0599 39.8346 37.3165 40.0887C37.8651 40.195 39.2352 40.7547 39.3405 40.9199C39.42 41.0282 39.6291 41.0507 41.5848 41.1512C43.0866 41.2262 43.7511 41.2393 43.753 41.1903C43.7547 41.1484 43.7981 41.1152 43.847 41.1172C43.9309 41.1206 44.0811 40.8677 44.2228 40.4815C44.2533 40.4198 44.3185 40.3664 44.3744 40.3687C44.4233 40.3707 44.5737 40.2858 44.7044 40.1721C44.8277 40.0652 45.0355 39.9476 45.1562 39.9035C45.2837 39.8667 45.4638 39.7411 45.5592 39.6329L45.7282 39.4368L45.588 39.2701C45.4142 39.0671 44.7582 38.6765 44.3647 38.5415C44.206 38.486 44.0414 38.4023 44.0017 38.3447C43.9618 38.2941 43.8727 38.2485 43.8098 38.2459C43.7469 38.2434 43.6172 38.1611 43.5164 38.059C43.4156 37.9569 43.2309 37.8514 43.1132 37.8186C42.919 37.7758 42.793 37.6026 42.0129 36.304C41.3836 35.2566 41.0993 34.846 41.0149 34.8566C40.7896 34.8894 40.8688 34.6617 41.1336 34.5185C41.6626 34.246 42.6465 33.4601 44.3168 31.9741C46.1683 30.3346 46.1904 30.3075 46.5872 29.1547C47.1896 27.4224 48.6267 24.2682 49.623 22.4888C50.2197 21.4142 51.004 20.2002 51.0948 20.2039C51.1227 20.205 51.5328 20.6207 52.0158 21.1373C52.8481 22.011 53.5976 22.6855 53.9198 22.8525C54.0293 22.913 54.3181 22.8687 55.1029 22.6767C56.2549 22.4015 56.5669 22.3022 56.6844 22.167C56.8165 22.0184 57.3626 20.4658 58.7013 16.4606C59.4032 14.3473 60.0011 12.5518 60.0188 12.4616C60.0597 12.3162 60.0879 12.3104 60.5265 12.3702C61.2297 12.4618 61.7405 12.6366 62.5704 13.0553C64.2165 13.8851 64.2509 13.9005 64.8574 13.9602C65.8963 14.0584 67.6226 13.6037 67.6377 13.2333C67.651 12.9049 67.5823 12.8741 66.9914 12.9481C66.5553 13.0003 66.3739 12.9859 66.0553 12.903L65.6607 12.796L66.2312 12.7072C66.5412 12.6568 66.9874 12.5279 67.2229 12.4185C67.6084 12.2312 67.6448 12.1977 67.6536 11.9811L67.6633 11.7435L67.1314 11.7429C66.0043 11.746 65.4332 11.5058 63.9035 10.3937C62.1906 9.14119 61.3281 8.66515 60.5016 8.50556C60.3141 8.46994 60.0872 8.36972 59.9791 8.27433C59.574 7.90789 56.8895 7.1408 55.8832 7.09988C55.3449 7.08499 55.2744 7.09612 55.3692 7.17697C55.437 7.22872 55.4694 7.29303 55.4476 7.31314C55.404 7.35336 55.4769 7.79729 55.5692 8.10901C55.6005 8.20128 55.5926 8.22195 55.5457 8.17105C55.5055 8.12742 55.4296 7.92835 55.368 7.72286C55.313 7.52465 55.2351 7.3745 55.1993 7.39404C55.1566 7.4133 55.1518 7.35711 55.1841 7.25343L55.2334 7.07345L54.7582 7.05413C53.6399 7.01566 52.0485 7.07694 51.982 7.16522C51.9372 7.23339 51.9092 7.23226 51.8634 7.1534C51.8177 7.07455 51.7679 7.09352 51.6076 7.24799C51.4255 7.42257 51.4113 7.42899 51.4592 7.28395C51.5141 7.13919 51.5004 7.13164 51.0741 7.11431C50.1517 7.0768 47.629 7.66715 45.6755 8.37164C44.1339 8.9319 43.3701 9.12482 43.0093 9.04715C42.7661 9.00227 42.744 9.02937 42.7997 9.3816C42.7986 9.40955 42.8743 9.44062 42.9646 9.45829C43.1174 9.48551 43.1169 9.49948 43.0853 10.7931L43.0458 12.1073L42.8781 12.1005C42.7733 12.0963 42.6944 12.1421 42.6706 12.2111C42.6379 12.3287 42.6309 12.3285 42.6287 12.2094C42.6251 12.1252 42.5637 12.0877 42.4169 12.0818L42.2073 12.0733L42.2394 11.2836C42.2497 10.8571 42.2672 10.2559 42.2724 9.9551L42.2803 9.41647L42.476 9.42443C42.6437 9.43125 42.6655 9.41114 42.6746 9.18753C42.6837 8.96392 42.6636 8.9421 42.4959 8.93528C42.2301 8.93147 41.7829 9.25626 41.2114 9.88396C40.1927 11.0114 39.8854 11.1669 37.8516 11.6092C35.9167 12.0274 35.6371 12.1911 34.6569 13.4041C33.3812 14.997 33.4763 14.8959 32.9798 15.0577C32.7315 15.1386 32.4972 15.2201 32.4542 15.2463C32.4181 15.2729 32.1844 15.3403 31.944 15.4006C31.5268 15.5026 31.498 15.5224 31.4904 15.7111C31.4727 16.1443 32.0792 18.7867 32.2223 18.8835C32.2561 18.9129 32.2681 18.9624 32.2457 18.9965C32.2233 19.0306 32.2997 19.3906 32.4162 19.7943C32.5325 20.205 32.6231 20.5587 32.6223 20.5796C32.62 20.6356 31.9868 20.7148 31.9469 20.6642C31.9265 20.6493 31.6537 18.9234 31.3395 16.8388C31.0186 14.747 30.7478 12.9721 30.7306 12.8805C30.7016 12.7323 30.6739 12.7242 29.8354 12.6901C28.5077 12.6361 28.6005 12.5909 28.2573 13.4588C28.094 13.8581 27.9305 14.2645 27.8916 14.3609L27.8146 14.5327L27.6927 14.2618L27.5634 13.9975L27.0594 14.516C24.728 16.941 19.4222 20.2179 16.3469 21.1427L15.8652 21.2841L15.8757 21.0256C15.8862 20.767 15.8932 20.7673 16.3679 20.6256C17.0624 20.4159 18.7445 19.6724 19.7533 19.1324C21.4064 18.2408 23.1822 17.0881 24.7281 15.9051C25.6023 15.2337 27.1734 13.7787 27.1424 13.6795C27.1301 13.637 27.0212 13.5625 26.8901 13.5152L26.6556 13.4287L27.1559 13.1761C27.4274 13.0401 27.7492 12.8712 27.8639 12.8059L28.0789 12.6816L27.5534 12.6953C25.6398 12.7644 20.5921 12.9651 19.6174 13.0095C18.2496 13.0799 17.0858 13.2985 15.568 13.7898C14.7385 14.05 11.8226 14.8413 10.8335 15.0671C10.6781 15.1028 10.4586 15.1638 10.3384 15.1939C10.1329 15.2556 10.1058 15.2335 9.63799 14.6895C8.57523 13.4564 7.78609 11.8635 7.41178 10.2244C7.31174 9.75838 7.28959 9.44251 7.32141 8.65988C7.37438 7.18517 7.57953 6.78755 8.80808 5.8366C9.17668 5.55062 9.58891 5.22442 9.7265 5.11102L9.9729 4.90406L9.75158 3.11723C9.62366 2.13212 9.50317 1.3083 9.47635 1.27921C9.45653 1.25041 8.65957 1.74295 7.71019 2.36929ZM54.434 7.45391C54.4326 7.48885 54.368 7.52822 54.2902 7.54605C54.1066 7.58758 54.098 7.79722 54.2727 7.80432C54.5243 7.81455 54.6257 7.90266 54.618 8.09133C54.6089 8.31494 54.4848 8.44288 54.2964 8.42822C54.1566 8.42254 54.1569 8.41555 54.3129 8.3659C54.3982 8.33437 54.4924 8.25421 54.5229 8.19246C54.5848 8.04799 54.3887 7.87903 54.205 7.92055C54.1061 7.94453 54.0653 7.91487 54.0681 7.84499C54.0704 7.78909 54.0534 7.69041 54.0347 7.63365C54.0035 7.54139 54.1038 7.48248 54.4223 7.39744C54.4295 7.39073 54.4354 7.41897 54.434 7.45391ZM53.7732 7.868C53.7832 7.9664 53.834 8.09445 53.8882 8.13865C54.1041 8.33641 53.896 8.63592 53.5681 8.60859C53.4843 8.60518 53.5064 8.57808 53.6411 8.53456C53.8964 8.45395 53.9007 8.17416 53.6559 8.1712C53.4739 8.1708 53.4424 8.08552 53.6057 8.02917C53.7334 7.98537 53.7548 7.80426 53.6377 7.7575C53.5894 7.74153 53.491 7.75153 53.4267 7.78391C53.3484 7.81573 53.2995 7.81374 53.3012 7.77181C53.3046 7.68796 53.4466 7.63774 53.6207 7.65882C53.7183 7.66978 53.7643 7.74165 53.7732 7.868ZM53.0631 8.11909C53.0728 8.22448 53.0235 8.40446 52.9557 8.52069L52.8279 8.73947L53.0671 8.7072L53.2994 8.67466L53.0855 8.77095C52.8719 8.86025 52.6958 8.88809 52.6984 8.8252C52.6989 8.81122 52.7754 8.65334 52.8663 8.48206C53.0253 8.18755 53.0261 8.16659 52.9189 8.05024C52.8253 7.94144 52.7767 7.93247 52.6617 8.00479C52.5829 8.05057 52.5197 8.055 52.5211 8.02007C52.5248 7.92922 52.6666 7.88599 52.8756 7.90849C53.0078 7.92787 53.055 7.97178 53.0631 8.11909ZM52.0189 8.32161C52.2772 8.68208 52.0502 9.27479 51.73 9.05879C51.6618 9.01403 51.5702 8.85632 51.5273 8.70758C51.4595 8.48085 51.469 8.41824 51.5656 8.28218C51.7141 8.07124 51.8466 8.08363 52.0189 8.32161ZM50.9785 8.77626C50.9989 8.79109 51.0574 8.73047 51.1036 8.62736C51.1565 8.53152 51.2228 8.45022 51.2577 8.45165C51.2926 8.45307 51.2831 8.51567 51.238 8.59083C51.1927 8.67298 51.1736 8.79819 51.1917 8.86892C51.2221 8.98215 51.2073 9.00254 51.1112 8.95664C51.0148 8.91772 50.9999 8.93812 51.0216 9.09298C51.0383 9.19865 51.021 9.28194 50.993 9.2808C50.9581 9.27938 50.9304 9.27126 50.931 9.25728C50.9313 9.25029 50.8775 9.02413 50.8114 8.75547C50.7453 8.48681 50.7206 8.23382 50.7433 8.19275C50.7729 8.15196 50.8316 8.25933 50.8737 8.42903C50.9158 8.59873 50.9654 8.75473 50.9785 8.77626ZM59.3413 8.98333C59.3399 9.01827 59.1417 9.0732 58.9024 9.10547C58.3676 9.17471 56.5309 9.24701 56.4906 9.20338C56.4568 9.17401 56.906 9.14328 57.9716 9.10262C58.5111 9.08956 59.2004 9.0056 59.2586 8.95197C59.3165 8.90533 59.3442 8.91345 59.3413 8.98333ZM50.4629 8.7203C50.1276 8.87465 50.2053 9.37476 50.5583 9.29812C50.65 9.28085 50.7194 9.29767 50.7176 9.3396C50.7137 9.43743 50.2737 9.41254 50.1732 9.30346C50.1262 9.25256 50.0967 9.11837 50.1015 8.99958C50.1123 8.73404 50.229 8.61979 50.4666 8.62945L50.6412 8.63656L50.4629 8.7203ZM48.8046 8.87685C48.8233 8.9336 48.8851 8.96411 48.9488 8.9457C49.0056 8.92701 49.0542 8.93599 49.0525 8.97792C49.0511 9.01286 49.0072 9.06007 48.9504 9.07876C48.8084 9.12898 48.9355 9.6171 49.0893 9.62335C49.1661 9.62648 49.1723 9.64772 49.1141 9.70135C48.9759 9.82872 48.827 9.70368 48.7819 9.43587C48.7664 9.30225 48.7022 9.15965 48.6477 9.12244C48.5792 9.08466 48.5667 9.04915 48.617 9.0162C48.6601 8.98996 48.6836 8.92792 48.6579 8.87088C48.6392 8.81413 48.6552 8.76578 48.6971 8.76748C48.732 8.7689 48.779 8.81981 48.8046 8.87685ZM49.8383 8.93288C50.0064 9.1007 49.9797 9.41458 49.7856 9.53968C49.57 9.6779 49.4725 9.66693 49.3116 9.4924C48.9563 9.10699 49.4614 8.56059 49.8383 8.93288ZM48.3656 9.17396C48.1453 9.256 48.1556 9.34741 48.4034 9.44848C48.6723 9.5504 48.6766 9.78855 48.4141 9.87587C48.3145 9.91382 48.1954 9.91597 48.1547 9.88632C48.1069 9.85638 48.1432 9.82286 48.2492 9.79917C48.4678 9.75906 48.4895 9.57096 48.274 9.5342C47.9545 9.47222 48.0051 9.08931 48.3262 9.10937C48.5149 9.11704 48.5146 9.12403 48.3656 9.17396ZM46.4872 9.23757C46.5067 9.27336 46.4913 9.30773 46.4564 9.30631C46.4145 9.30461 46.381 9.26825 46.3824 9.23331C46.3841 9.19138 46.3992 9.164 46.4132 9.16457C46.4341 9.16542 46.4679 9.19479 46.4872 9.23757ZM47.4788 9.46687C47.5754 9.67378 47.6229 10.0537 47.553 10.0508C47.5181 10.0494 47.4603 9.92108 47.4179 9.75837C47.3574 9.52493 47.3175 9.47431 47.1909 9.49016C47.0293 9.50459 46.9965 9.62225 47.0798 9.9826C47.1088 10.1308 47.0929 10.1791 47.0308 10.1556C46.9895 10.1399 46.9303 10.0465 46.9133 9.94783C46.789 9.38983 46.7898 9.36886 46.8929 9.41505C46.9547 9.44556 47.0182 9.43414 47.0405 9.40006C47.1152 9.28411 47.421 9.33853 47.4788 9.46687ZM46.6715 9.86801C46.7189 10.0799 46.7194 10.2409 46.6833 10.2674C46.6117 10.3065 46.5994 10.264 46.5047 9.84022C46.4517 9.59309 46.4809 9.3913 46.5617 9.47158C46.5748 9.49311 46.6236 9.67008 46.6715 9.86801ZM45.1 9.95809C45.214 10.4247 45.2332 10.6424 45.1661 10.5697C45.1463 10.5409 45.0474 10.5649 44.9403 10.6165C44.6836 10.7321 44.4794 10.5908 44.4639 10.2822C44.447 10.0085 44.5651 9.85934 44.7887 9.86844C44.9354 9.8744 44.9433 9.85373 44.8953 9.65579C44.8594 9.50735 44.8617 9.45144 44.917 9.46769C44.9583 9.48337 45.0404 9.70369 45.1 9.95809ZM45.8577 9.74392C46.075 9.90674 46.0347 10.0381 45.7462 10.0754C45.4432 10.126 45.4579 10.2806 45.7653 10.2931C46.0518 10.3048 46.0115 10.4361 45.7239 10.4524C45.3451 10.472 45.1676 10.0168 45.4512 9.75539C45.6258 9.5945 45.6607 9.59592 45.8577 9.74392ZM44.1549 10.1366C44.1878 10.187 44.2444 10.3433 44.2807 10.4847C44.3406 10.7321 44.3403 10.7391 44.0921 10.82C43.8723 10.8881 43.8307 10.8794 43.7581 10.7714C43.6525 10.6132 43.7597 10.3865 43.9644 10.3459C44.0351 10.3277 44.0997 10.2884 44.1008 10.2604C44.1045 10.1696 43.9382 10.1278 43.8096 10.1926C43.6885 10.2437 43.6355 10.1715 43.737 10.0846C43.8173 10.0039 44.0887 10.043 44.1549 10.1366ZM56.3811 10.8648C56.3728 11.0674 56.3446 11.0733 56.2105 10.9278C56.0832 10.7897 56.1653 10.492 56.3002 10.6165C56.3474 10.6604 56.3848 10.7739 56.3811 10.8648ZM43.4414 10.2966C43.3466 10.3907 43.3284 10.495 43.3469 10.7267C43.3864 11.1343 43.2615 10.9332 43.209 10.5041C43.1829 10.2861 43.1927 10.2165 43.2472 10.2537C43.295 10.2837 43.3305 10.2711 43.3319 10.2362C43.3336 10.1942 43.3839 10.1613 43.4538 10.1641C43.5586 10.1684 43.5583 10.1754 43.4414 10.2966ZM50.6737 10.7657C50.7527 10.8879 50.7164 11.2644 50.6218 11.3515C50.4982 11.4655 50.2332 11.4407 50.1894 11.3129C50.1398 11.1569 50.2151 11.027 50.4144 10.9441C50.6493 10.8487 50.5708 10.7125 50.303 10.7576C50.0632 10.8038 50.0311 10.7325 50.2651 10.6581C50.4353 10.602 50.6016 10.6438 50.6737 10.7657ZM49.9119 10.9097C50.0588 11.0836 50.0062 11.1725 49.7244 11.217C49.4426 11.2616 49.485 11.4243 49.7785 11.4362C49.9043 11.4413 50.0012 11.4663 50.0004 11.4872C49.9981 11.5431 49.8133 11.6126 49.6735 11.6069C49.5268 11.601 49.3067 11.333 49.3133 11.1723C49.3198 11.0116 49.5609 10.7624 49.7007 10.7681C49.7566 10.7704 49.8518 10.8372 49.9119 10.9097ZM49.012 11.0061C49.0866 11.0651 49.2309 11.4769 49.2246 11.6307C49.2161 11.8403 49.1027 11.7027 49.0381 11.3991C48.9851 11.152 48.939 11.0801 48.8404 11.0971C48.7417 11.1141 48.7179 11.1831 48.721 11.4492C48.7264 11.8344 48.6193 11.886 48.5712 11.5201C48.5328 11.2596 48.3769 11.1342 48.246 11.2549C48.1878 11.3085 48.1836 11.4133 48.2315 11.6113C48.2666 11.7807 48.2618 11.8995 48.2268 11.8981C48.15 11.8949 48.0744 11.6889 48.0117 11.3364C47.978 11.132 47.9861 11.1043 48.0825 11.1433C48.1376 11.1665 48.208 11.1554 48.2374 11.1216C48.2601 11.0805 48.3588 11.0635 48.4488 11.0882C48.539 11.1058 48.652 11.0824 48.6959 11.0352C48.791 10.9341 48.8967 10.9174 49.012 11.0061ZM41.7494 11.2847C41.7423 11.4594 41.7688 11.4955 41.9086 11.5012C42.0763 11.508 42.0824 11.5292 42.0809 12.0821C42.0818 12.4041 42.0639 12.8443 42.0412 13.0604C42.0049 13.4369 41.9897 13.4643 41.836 13.458C41.7102 13.4529 41.6599 13.4859 41.6556 13.5907C41.6525 13.6675 41.622 13.7293 41.5801 13.7276C41.5451 13.7262 41.5127 13.6619 41.5159 13.585C41.5199 13.4872 41.4726 13.4432 41.3539 13.4384C41.2001 13.4322 41.1876 13.3967 41.1733 13.0601C41.1745 12.8572 41.1854 12.4167 41.213 12.0818C41.2581 11.4887 41.2657 11.475 41.4334 11.4818C41.5732 11.4875 41.6025 11.4537 41.6096 11.279C41.6145 11.1602 41.6531 11.0708 41.688 11.0722C41.73 11.0739 41.7542 11.1659 41.7494 11.2847ZM46.6465 11.3438C46.6451 11.3788 46.6926 11.4157 46.7485 11.418C46.8673 11.4228 46.8834 11.5425 46.7702 11.5729C46.6357 11.6094 46.7509 12.048 46.9155 12.1317C47.0529 12.1933 47.046 12.193 46.8648 12.1716C46.6907 12.1506 46.6505 12.1069 46.6028 11.902C46.5733 11.7678 46.5225 11.6398 46.4884 11.6174C46.4205 11.5656 46.5026 11.268 46.5865 11.2714C46.6214 11.2728 46.6482 11.3019 46.6465 11.3438ZM47.2659 11.432C47.0782 11.5714 47.0715 11.5641 47.458 11.6988C47.6098 11.754 47.6295 11.9578 47.4927 12.0502C47.3344 12.1557 47.1033 12.1603 47.1073 12.0625C47.109 12.0206 47.173 11.9952 47.2429 11.998C47.4665 12.0071 47.4859 11.8749 47.2796 11.7826C47.1762 11.7434 47.0673 11.6689 47.0413 11.6189C46.9763 11.4972 47.1245 11.2933 47.2853 11.2998C47.425 11.3055 47.4247 11.3125 47.2659 11.432ZM45.0873 11.8194L45.1576 12.1582L45.2648 11.9316C45.3255 11.8151 45.3996 11.7131 45.4416 11.7148C45.4835 11.7165 45.4734 11.7931 45.4202 11.8959C45.3365 12.0605 45.3421 12.0957 45.5248 12.2501C45.7818 12.4706 45.6873 12.5577 45.423 12.344L45.2123 12.1884L45.2032 12.4121C45.1896 12.7475 45.0913 12.5825 44.9807 12.032C44.8701 11.4816 44.8701 11.4816 44.9539 11.485C44.9889 11.4864 45.0458 11.6357 45.0873 11.8194ZM46.3503 11.7448C46.4337 11.9301 46.4323 11.9651 46.3135 11.9602C46.2576 11.958 46.1234 11.9875 46.0172 12.0182C45.8396 12.081 45.8321 12.0947 45.9326 12.2037C46.0265 12.3055 46.0751 12.3145 46.2317 12.2509C46.3743 12.1867 46.4092 12.1881 46.3854 12.2571C46.3305 12.4019 45.89 12.391 45.7909 12.247C45.6853 12.0887 45.6908 11.7809 45.8072 11.6737C45.9454 11.5463 46.2726 11.5876 46.3503 11.7448ZM44.73 12.0008C44.6715 12.0615 44.6446 12.2074 44.6654 12.3832C44.6987 12.7695 44.5928 12.7932 44.5103 12.4119C44.4222 11.9953 44.4295 11.9886 44.6146 11.9122C44.807 11.829 44.8545 11.8659 44.73 12.0008ZM50.395 12.4552C50.3695 12.5661 50.3398 12.6069 50.3208 12.5572C50.2966 12.4652 50.3607 12.2648 50.4096 12.2668C50.4236 12.2674 50.4202 12.3512 50.395 12.4552ZM44.2233 12.2392C44.3413 12.608 44.3546 12.7975 44.2644 12.7798C44.2157 12.7709 44.1173 12.7809 44.0533 12.8063C43.7189 12.9396 43.6009 12.5709 43.9096 12.3805C44.1249 12.2492 44.0811 12.1214 43.834 12.1744C43.7211 12.1978 43.6797 12.1821 43.7097 12.1343C43.732 12.1003 43.8523 12.0701 43.9641 12.0747C44.1108 12.0807 44.186 12.1257 44.2233 12.2392ZM43.4141 12.3463C43.538 12.5683 43.5987 12.9697 43.5079 12.9661C43.4729 12.9646 43.4216 12.8506 43.399 12.7167C43.3834 12.583 43.3262 12.4407 43.2723 12.3895C43.2181 12.3453 43.1788 12.2807 43.1802 12.2458C43.185 12.127 43.3225 12.1886 43.4141 12.3463ZM48.4641 12.7756C48.3056 12.8882 48.2819 13.1252 48.4312 13.0683C48.488 13.0496 48.5363 13.0655 48.5349 13.1005C48.5332 13.1424 48.4971 13.1689 48.4552 13.1672C48.3783 13.1641 48.3991 13.5149 48.4867 13.7704C48.5054 13.8272 48.4897 13.8686 48.4478 13.8669C48.4128 13.8654 48.3486 13.7228 48.3068 13.5462C48.265 13.3695 48.2078 13.2272 48.1798 13.226C48.11 13.2232 48.1946 12.8627 48.29 12.7546C48.3266 12.714 48.4122 12.6755 48.4751 12.6781C48.5726 12.6891 48.5724 12.696 48.4641 12.7756ZM49.7328 12.9042C49.674 12.9718 49.6547 13.104 49.6752 13.2868C49.6899 13.4414 49.6848 13.5672 49.6499 13.5658C49.601 13.5638 49.4242 12.9197 49.467 12.9004C49.4809 12.901 49.5525 12.8619 49.6311 12.8231C49.8098 12.7324 49.8573 12.7693 49.7328 12.9042ZM40.6801 12.7951C40.6648 12.9974 40.6847 13.0262 40.8515 13.054L41.0393 13.0827L41.0225 14.0129C41.0044 15.146 40.9963 15.1737 40.7797 15.1649C40.6749 15.1606 40.6103 15.2 40.6077 15.2629C40.6055 15.3188 40.5755 15.3666 40.5336 15.3649C40.4986 15.3635 40.4657 15.3131 40.468 15.2572C40.4705 15.1943 40.4093 15.1498 40.2975 15.1453C40.1857 15.1407 40.1245 15.0963 40.1274 15.0264C40.1297 14.9705 40.1028 14.9414 40.0601 14.9607C40.0173 14.9799 39.9766 15.2932 39.9615 15.6636C39.9348 16.3204 39.9348 16.3204 39.7601 16.3133C39.6413 16.3085 39.5837 16.3481 39.5736 16.4247C39.5618 16.5432 39.5548 16.543 39.5316 16.423C39.5138 16.3453 39.4387 16.3003 39.3059 16.2949L39.1032 16.2866L39.1118 15.559C39.1217 14.6285 39.1295 14.6078 39.3811 14.6181C39.5627 14.6255 39.5848 14.5984 39.6071 14.3963L39.6231 14.173L39.642 14.3977C39.6623 14.5875 39.6955 14.6309 39.8353 14.6365C39.9261 14.6402 40.0018 14.6713 40.0001 14.7132C39.9987 14.7482 40.0322 14.7845 40.0672 14.786C40.1091 14.7877 40.1507 14.4534 40.1726 13.9153L40.2081 13.0419L40.3828 13.049C40.5365 13.0552 40.5586 13.0281 40.5674 12.8115C40.5728 12.6787 40.6053 12.5681 40.6403 12.5695C40.6752 12.5709 40.6919 12.6766 40.6801 12.7951ZM49.1765 12.9866C49.395 13.1214 49.3308 13.3218 49.0493 13.3594C48.8732 13.3872 48.8156 13.4269 48.8474 13.5051C48.8723 13.5831 48.955 13.6145 49.1165 13.6001C49.4114 13.5771 49.4287 13.6688 49.1327 13.7197C48.7097 13.7935 48.4733 13.238 48.8324 13.0146C49.0264 12.8895 49.0055 12.8886 49.1765 12.9866ZM47.8486 13.2825C47.6283 13.3646 47.6383 13.463 47.8806 13.5288C48.0885 13.5793 48.1938 13.7445 48.1118 13.8672C48.0449 13.9625 47.7757 14.0425 47.6938 13.9902C47.6597 13.9678 47.7034 13.9276 47.802 13.9106C48.0206 13.8705 48.0423 13.6824 47.8338 13.6459C47.7505 13.6285 47.648 13.5684 47.6083 13.5108C47.5019 13.3734 47.6488 13.2044 47.8581 13.2199C48.0049 13.2259 48.0049 13.2259 47.8486 13.2825ZM47.2763 13.4133C47.4045 13.5305 47.5411 14.131 47.424 14.0842C47.3827 14.0685 47.3182 13.9329 47.2825 13.7775C47.2346 13.5795 47.1818 13.5004 47.0839 13.4964C46.9582 13.4913 46.9425 13.5327 46.9434 13.8547C46.9421 14.0576 46.9213 14.2248 46.8864 14.2233C46.8375 14.2213 46.6705 13.5076 46.7136 13.4814C46.7849 13.4493 47.0978 13.329 47.1327 13.3304C47.1539 13.3243 47.2151 13.3688 47.2763 13.4133ZM46.4669 13.6953C46.506 13.7669 46.5487 13.9226 46.5651 14.0353C46.5993 14.2257 46.577 14.2597 46.3997 14.3155C46.0094 14.4466 45.7805 14.0524 46.1576 13.8997C46.2572 13.8618 46.3366 13.802 46.3377 13.7741C46.342 13.6692 46.2037 13.6286 46.0608 13.6998C45.9252 13.7643 45.8648 13.6988 45.9736 13.6053C46.0684 13.5111 46.4089 13.574 46.4669 13.6953ZM45.1674 13.8105C45.2859 13.8223 45.2926 13.8296 45.2006 13.8538C45.1301 13.8649 45.0717 13.9256 45.0697 13.9745C45.0615 14.1771 45.191 14.4344 45.3098 14.4392C45.4006 14.4429 45.4068 14.4641 45.3486 14.5178C45.2104 14.6451 45.0615 14.5201 44.9896 14.2232C44.9539 14.0678 44.9034 13.9327 44.869 13.9173C44.8347 13.9019 44.8451 13.8184 44.891 13.7222C44.9526 13.5847 44.9741 13.5716 44.9911 13.6703C45.0092 13.741 45.0835 13.8071 45.1674 13.8105ZM45.7071 13.7904C45.6484 13.858 45.629 13.9902 45.6496 14.173C45.6968 14.5599 45.5725 14.5199 45.4906 14.1246C45.449 13.9409 45.427 13.793 45.4413 13.7866C45.4553 13.7872 45.5269 13.7481 45.6054 13.7093C45.7841 13.6186 45.8316 13.6555 45.7071 13.7904ZM55.4039 14.5837C55.4005 14.6675 55.3175 14.6432 55.182 14.5327C55.0058 14.3925 55.036 14.3377 55.2349 14.4368C55.3311 14.4827 55.4054 14.5487 55.4039 14.5837ZM44.3493 14.1342C44.49 14.2869 44.4299 14.3894 44.1766 14.4211C44.0427 14.4437 43.9292 14.481 43.9281 14.509C43.923 14.6348 44.094 14.7327 44.298 14.706L44.5158 14.6869L44.317 14.7558C43.9835 14.8682 43.7792 14.7269 43.7929 14.3915C43.7988 14.2448 43.8258 14.0989 43.8546 14.079C43.9346 14.0053 44.2621 14.0396 44.3493 14.1342ZM31.0397 17.1556C31.3372 19.1345 31.565 20.7606 31.5508 20.7671C31.5001 20.807 30.4021 20.9583 30.3753 20.9292C30.335 20.8856 29.2597 13.7656 29.2888 13.7387C29.3109 13.7116 30.2267 13.5669 30.388 13.5595C30.4721 13.5559 30.5974 14.2609 31.0397 17.1556ZM43.5022 14.3097C43.5949 14.4395 43.6714 14.9675 43.5829 14.9079C43.5421 14.8783 43.4977 14.7645 43.4813 14.6518C43.4649 14.5392 43.4007 14.3966 43.3404 14.3311C43.2462 14.2363 43.2471 14.2153 43.3309 14.2187C43.3868 14.221 43.462 14.2661 43.5022 14.3097ZM55.0452 14.8001C55.1647 14.9589 55.0549 15.2484 54.8573 15.2894C54.6952 15.3178 54.3506 15.1848 54.4236 15.1108C54.4451 15.0976 54.5281 15.122 54.6103 15.1673C54.8631 15.3176 55.1001 14.9983 54.8923 14.7729C54.8387 14.7147 54.8398 14.6867 54.8887 14.6887C54.9306 14.6904 54.9985 14.7422 55.0452 14.8001ZM21.3072 13.6242C21.369 13.6547 21.4214 13.7408 21.4108 13.8314L21.4042 13.9921L21.3409 13.8285C21.2784 13.644 21.1302 13.673 21.1785 13.8639C21.2094 13.9632 21.2022 13.9699 21.143 13.8765C21.1033 13.8189 21.0735 13.6917 21.0775 13.5938C21.0814 13.496 21.1111 13.4552 21.1373 13.4983C21.1636 13.5413 21.2385 13.5934 21.3072 13.6242ZM48.6096 14.7064C48.6082 14.7413 48.5576 14.7812 48.5005 14.8069C48.3445 14.8566 48.3676 14.9765 48.5395 15.0535C48.6636 15.1005 48.6627 15.1215 48.5705 15.1527C48.4782 15.184 48.4692 15.2326 48.5174 15.4235C48.5894 15.7204 48.584 15.8532 48.4954 15.7936C48.4613 15.7712 48.4289 15.7069 48.4312 15.651C48.4335 15.5951 48.4036 15.4679 48.3593 15.3541C48.2775 15.1268 48.3029 14.8479 48.4131 14.7194C48.5009 14.6249 48.6133 14.6155 48.6096 14.7064ZM20.9976 13.8356C20.9934 13.9404 20.9486 14.0085 20.8927 14.0063C20.8368 14.004 20.7722 14.0434 20.7565 14.0847C20.7333 14.1398 20.7129 14.1249 20.716 14.0481C20.7116 13.9849 20.7628 13.931 20.8187 13.9333C20.8746 13.9355 20.9255 13.8886 20.9278 13.8327C20.9329 13.7069 20.8493 13.6965 20.733 13.8038C20.6675 13.8641 20.6465 13.8633 20.6499 13.7794C20.6522 13.7235 20.7314 13.6707 20.8295 13.6677C20.9765 13.6667 21.0033 13.6958 20.9976 13.8356ZM19.6772 13.7749C19.5673 13.8964 19.6432 14.0954 19.8039 14.102C19.9437 14.1077 19.9899 14.0046 19.8733 13.9438C19.8323 13.9212 19.8395 13.9144 19.8882 13.9234C20.0408 13.9576 19.9772 14.144 19.8156 14.1585C19.6188 14.1784 19.4753 13.9206 19.6073 13.772C19.6515 13.7178 19.7092 13.6782 19.7231 13.6787C19.7441 13.6796 19.7214 13.7207 19.6772 13.7749ZM20.5607 13.9088C20.5768 14.0284 20.5405 14.0619 20.4357 14.0577C20.261 14.0506 20.2451 13.9239 20.4154 13.8679C20.5219 13.8302 20.5222 13.8232 20.3987 13.7622C20.2752 13.7012 20.2752 13.7012 20.4071 13.7275C20.4907 13.7379 20.5507 13.8104 20.5607 13.9088ZM49.71 15.1851C49.7697 15.4395 49.7607 15.4881 49.6455 15.5674C49.4727 15.6864 49.2281 15.6764 49.1776 15.5414C49.1279 15.3854 49.2032 15.2554 49.4026 15.1726C49.6374 15.0771 49.5523 14.9337 49.2845 14.9788C49.1578 14.9946 49.0952 14.9851 49.1249 14.9443C49.1475 14.9032 49.2745 14.8804 49.4072 14.8858C49.6308 14.8949 49.6509 14.9167 49.71 15.1851ZM20.1674 13.9418C20.1494 14.039 20.1184 14.1148 20.1114 14.1145C20.1044 14.1142 20.0796 14.0362 20.0696 13.9378C20.0531 13.8251 20.0697 13.7628 20.1256 13.7651C20.1815 13.7674 20.1929 13.8308 20.1674 13.9418ZM19.2743 14.0454C19.2703 14.1433 19.2602 14.2199 19.2532 14.2196C19.2043 14.2176 19.1262 13.8994 19.1564 13.8447C19.216 13.7561 19.268 13.8562 19.2743 14.0454ZM18.5822 14.0243C18.6459 14.0059 18.6663 14.0207 18.6437 14.0618C18.6143 14.0956 18.6316 14.1873 18.6849 14.2525C18.7645 14.3607 18.7572 14.3674 18.6561 14.2723C18.5544 14.1912 18.5334 14.1903 18.5233 14.2669C18.5112 14.3924 18.4133 14.0454 18.419 13.9057C18.4216 13.8428 18.4353 13.8503 18.4531 13.9281C18.471 14.0058 18.5254 14.043 18.5822 14.0243ZM51.4486 15.2908C51.462 15.3053 51.3775 15.3159 51.2588 15.311C51.14 15.3062 51.0223 15.2734 51.0031 15.2306C50.9707 15.1663 51.3743 15.2247 51.4486 15.2908ZM19.0367 14.0358C19.0353 14.0707 18.9707 14.1101 18.8862 14.1207C18.7806 14.1374 18.7607 14.1086 18.7921 14.0258C18.8458 13.909 19.0415 13.917 19.0367 14.0358ZM17.7186 14.2622L17.752 14.4735L17.6543 14.2945C17.6024 14.1944 17.5655 14.067 17.5608 14.0108C17.5674 13.8501 17.6791 14.0296 17.7186 14.2622ZM52.1772 15.4464C52.1153 15.5908 52.3576 15.6567 52.5028 15.5296C52.6549 15.4028 52.6742 15.4456 52.5608 15.651C52.5009 15.7465 52.5065 15.7817 52.5691 15.7913C52.618 15.7933 52.5889 15.8201 52.5037 15.8516C52.4114 15.8829 52.339 15.9429 52.3373 15.9848C52.3358 16.0198 52.2995 16.0533 52.2645 16.0519C52.2226 16.0502 52.2118 15.9727 52.2437 15.876C52.2843 15.7377 52.2583 15.6876 52.1142 15.6188C51.9222 15.52 51.8904 15.4417 52.0324 15.3915C52.1817 15.3346 52.2231 15.3502 52.1772 15.4464ZM17.3049 14.2803C17.3006 14.3852 17.2765 14.4612 17.2494 14.4391C17.2151 14.4237 17.1987 14.311 17.2035 14.1922C17.2083 14.0734 17.2324 13.9974 17.2662 14.0268C17.293 14.0559 17.3094 14.1685 17.3049 14.2803ZM18.1088 14.306C18.0984 14.3896 18.078 14.3748 18.0199 14.2534C17.9744 14.1676 17.9065 14.1158 17.8705 14.1424C17.8414 14.1692 17.8349 14.1549 17.8649 14.1071C17.9396 13.9912 18.1156 14.1383 18.1088 14.306ZM18.2877 14.2083C18.284 14.2992 18.2605 14.3612 18.2334 14.3391C18.199 14.3237 18.1812 14.246 18.1843 14.1691C18.1872 14.0992 18.2107 14.0372 18.2456 14.0386C18.2736 14.0398 18.2914 14.1175 18.2877 14.2083ZM48.1666 15.4443C48.2166 15.5933 48.2129 15.6841 48.1306 15.8138C47.9207 16.1552 47.4373 15.9956 47.454 15.5833C47.4643 15.3317 47.5873 15.2317 47.8668 15.2431C48.0555 15.2508 48.11 15.288 48.1666 15.4443ZM16.774 14.4267C16.7629 14.6993 16.7235 14.6347 16.6886 14.2903C16.6683 14.1005 16.6775 14.0448 16.7166 14.1164C16.7493 14.1738 16.7785 14.3149 16.774 14.4267ZM16.9665 14.5116C16.962 14.6234 16.9483 14.6158 16.912 14.4743C16.8881 14.3754 16.8658 14.2345 16.8689 14.1576C16.8735 14.0458 16.8872 14.0534 16.9234 14.1948C16.9474 14.2938 16.9697 14.4347 16.9665 14.5116ZM51.7254 15.54C51.724 15.5749 51.6946 15.6087 51.6527 15.607C51.6177 15.6056 51.5842 15.5692 51.5856 15.5343C51.5874 15.4924 51.6234 15.4659 51.6584 15.4673C51.7003 15.469 51.7271 15.4981 51.7254 15.54ZM53.5402 15.6628C53.5388 15.6977 53.4714 15.807 53.3897 15.9226C53.3083 16.0313 53.2601 16.1833 53.2785 16.2471C53.3028 16.3391 53.2809 16.3592 53.2122 16.3284C53.1571 16.3051 53.0928 16.3375 53.0696 16.3926C53.0391 16.4543 52.9882 16.5013 52.9463 16.4995C52.8904 16.4973 52.8921 16.4553 52.9519 16.3598C53.0197 16.2436 53.0004 16.2008 52.8163 16.0813L52.5981 15.9394L52.9479 15.7717C53.2974 15.6109 53.5442 15.565 53.5402 15.6628ZM17.5458 14.3811C17.5412 14.4929 17.52 14.4991 17.439 14.4258C17.3851 14.3746 17.3387 14.3097 17.3398 14.2818C17.3407 14.2608 17.3907 14.2348 17.4466 14.2371C17.5025 14.2394 17.5489 14.3043 17.5458 14.3811ZM17.9254 14.3406C17.9441 14.3973 17.9281 14.4457 17.8932 14.4442C17.8512 14.4425 17.8253 14.3925 17.8276 14.3366C17.8298 14.2807 17.8458 14.2323 17.8598 14.2329C17.8737 14.2335 17.8997 14.2835 17.9254 14.3406ZM29.51 17.7654C29.763 19.4625 29.9851 20.8854 29.9971 20.9349C30.0222 21.0059 29.6968 21.0906 29.0426 21.169L28.7754 21.2002L28.2948 18.0449C28.0362 16.3126 27.8284 14.8832 27.8359 14.8695C27.8723 14.836 28.7462 14.6896 28.9072 14.6891C29.0402 14.6875 29.0803 14.9061 29.51 17.7654ZM46.8616 15.8672C46.793 16.3473 46.692 16.5952 46.5592 16.5898C46.4963 16.5872 46.4972 16.5663 46.5626 16.5059C46.708 16.3719 46.6741 16.1745 46.4618 15.8859C46.2563 15.6046 46.2245 15.5263 46.3223 15.5303C46.3572 15.5317 46.4575 15.6478 46.5567 15.7918L46.7208 16.0574L46.7831 15.731C46.8796 15.252 46.9318 15.3451 46.8616 15.8672ZM15.9547 14.4354C15.965 14.5268 16.0102 14.6197 16.0516 14.6353C16.1413 14.667 16.1662 14.57 16.0928 14.483C16.0257 14.4103 16.0122 14.2278 16.082 14.2306C16.1519 14.2335 16.2221 14.5723 16.1698 14.6541C16.0431 14.845 15.8551 14.6483 15.8673 14.3479C15.875 14.1592 15.9286 14.2174 15.9547 14.4354ZM16.5497 14.6066C16.3993 14.6915 16.3104 14.6389 16.3044 14.4426L16.2902 14.2741L16.3536 14.4376C16.4295 14.6367 16.5788 14.5798 16.5314 14.3679C16.5022 14.2267 16.5091 14.227 16.58 14.3769C16.6375 14.5122 16.6358 14.5541 16.5497 14.6066ZM46.1852 15.8047C46.2368 15.9118 46.2351 15.9537 46.1644 15.9718C46.1146 15.9908 45.9804 16.0203 45.8672 16.0507C45.6762 16.0989 45.6687 16.1126 45.7759 16.229C45.8634 16.3165 45.9327 16.3333 46.0605 16.2895C46.174 16.2522 46.2369 16.2547 46.2352 16.2966C46.2317 16.3805 45.9069 16.4513 45.7764 16.39C45.5976 16.3127 45.5117 16.0153 45.6107 15.8163C45.7247 15.597 46.0819 15.5905 46.1852 15.8047ZM54.1862 16.13C54.2411 16.3282 54.1482 16.5484 53.9294 16.7635C53.4699 17.2208 53.1217 16.6607 53.5611 16.1816C53.7883 15.9318 54.1254 15.9036 54.1862 16.13ZM45.325 15.9587C45.428 16.1798 45.4691 16.5455 45.3922 16.5423C45.3573 16.5409 45.3059 16.4268 45.2834 16.2929C45.2406 15.9692 45.0919 15.8372 44.939 15.985C44.8371 16.0788 44.8279 16.1344 44.8887 16.3609C44.9556 16.6086 44.9365 16.7338 44.8491 16.6462C44.829 16.6244 44.7804 16.4405 44.7328 16.2356C44.6614 15.9247 44.6634 15.8758 44.7459 15.9141C44.8009 15.9374 44.8644 15.9259 44.8867 15.8919C44.9615 15.7759 45.2672 15.8303 45.325 15.9587ZM50.6528 16.0983C50.6488 16.1961 50.1144 16.9443 50.0446 16.9415C49.9887 16.9392 50.0796 16.7679 50.4145 16.2776C50.5108 16.1485 50.5046 16.1273 50.394 16.0948C50.311 16.0704 50.3325 16.0573 50.4655 16.0557C50.5704 16.06 50.6537 16.0774 50.6528 16.0983ZM38.8294 16.1355C39.0111 16.1429 39.0312 16.1647 39.0235 16.3534C39.0161 16.5351 38.9871 16.5619 38.8333 16.5556C38.7075 16.5505 38.636 16.5896 38.6035 16.7003L38.5623 16.8526L38.5126 16.6966C38.475 16.59 38.4001 16.538 38.2813 16.5332C38.1345 16.5272 38.108 16.4911 38.1151 16.3164C38.1228 16.1278 38.1446 16.1076 38.3333 16.1153C38.5289 16.1233 38.5438 16.1029 38.5677 15.8589L38.5852 15.6006L38.6026 15.8603C38.6209 16.099 38.6407 16.1278 38.8294 16.1355ZM44.4503 16.1261C44.5779 16.2573 44.5785 16.5863 44.4549 16.7002C44.3095 16.8343 43.9967 16.7796 43.8848 16.607C43.7532 16.3987 43.7584 16.2729 43.9116 16.1182C44.0576 15.9701 44.3095 15.9734 44.4503 16.1261ZM37.6995 16.2085C37.6944 16.3343 37.7349 16.371 37.8607 16.3761C38.0144 16.3823 38.027 16.4178 38.0422 16.7334C38.0415 16.9224 38.0287 17.2368 38.0138 17.4322C37.973 17.7455 37.9576 17.7799 37.8039 17.7736C37.6851 17.7688 37.6345 17.8087 37.6305 17.9066C37.6274 17.9834 37.5969 18.0452 37.5549 18.0435C37.52 18.0421 37.4876 17.9778 37.4907 17.9009C37.495 17.7961 37.4475 17.7591 37.3217 17.754C37.161 17.7475 37.1482 17.719 37.1598 17.4325C37.1669 17.2578 37.1447 17.1169 37.1027 17.1152C37.0678 17.1138 37.0258 17.287 37.0172 17.4967C37.0025 17.86 36.9946 17.8807 36.8269 17.8739C36.6941 17.8685 36.6508 17.9017 36.639 18.0202L36.6324 18.181L36.5761 18.0177C36.5384 17.9112 36.4566 17.8588 36.3378 17.854C36.1701 17.8472 36.1636 17.8329 36.1813 17.3997C36.1992 16.9595 36.2067 16.9458 36.3962 16.9325C36.5505 16.9247 36.5944 16.8775 36.6376 16.6763L36.6895 16.4334L36.6932 16.6856C36.6906 16.9234 36.7037 16.945 36.9332 16.9823L37.1766 17.0202L37.1902 16.6848C37.203 16.3703 37.2178 16.3499 37.3786 16.3565C37.5323 16.3627 37.5544 16.3356 37.5641 16.098C37.5717 15.9094 37.5944 15.8683 37.6402 15.9472C37.6728 16.0045 37.703 16.1247 37.6995 16.2085ZM43.5727 16.3634C43.6848 16.7039 43.7051 16.8937 43.6352 16.8909C43.5933 16.8892 43.542 16.7751 43.5197 16.6342C43.4986 16.4653 43.4396 16.365 43.3566 16.3406C43.1839 16.2846 43.1955 16.173 43.3702 16.1801C43.461 16.1838 43.535 16.2568 43.5727 16.3634ZM55.1676 16.9538C55.1647 17.0237 55.1284 17.0572 55.073 17.041C55.025 17.018 54.8862 17.1594 54.7444 17.3776C54.6101 17.5821 54.4632 17.7511 54.4283 17.7497C54.3654 17.7471 54.4563 17.5759 54.7982 17.0858C54.8506 17.0039 54.8828 16.9003 54.8632 16.8645C54.8367 16.8284 54.8742 16.7669 54.9458 16.7278C55.0887 16.6567 55.1758 16.7512 55.1676 16.9538ZM51.6558 16.734L51.8875 16.8905L51.4135 17.1861C51.1551 17.3436 50.9051 17.4665 50.8571 17.4435C50.8157 17.4278 50.9815 17.3086 51.2251 17.1715C51.4687 17.0344 51.6694 16.9166 51.67 16.9026C51.6706 16.8886 51.5686 16.8145 51.4532 16.7258C51.3305 16.6438 51.2705 16.5714 51.3264 16.5737C51.3753 16.5757 51.5262 16.6518 51.6558 16.734ZM27.6317 15.9321C27.6309 15.9531 27.807 17.1292 28.0225 18.5448C28.2312 19.9531 28.3925 21.1496 28.3768 21.1909C28.3611 21.2323 28.0919 21.3123 27.7749 21.3624L27.2043 21.4512L27.149 21.092C27.115 20.8947 26.9383 19.7326 26.7568 18.5143C26.5684 17.2958 26.4081 16.2463 26.3897 16.1826C26.3654 16.0906 26.465 16.0527 26.8739 15.9783C27.4657 15.8834 27.6343 15.8693 27.6317 15.9321ZM49.6731 16.9544C49.5024 17.1924 49.6384 17.4639 49.9196 17.4334C49.9475 17.4345 49.9676 17.4563 49.9659 17.4983C49.962 17.5961 49.6618 17.5769 49.5612 17.4678C49.4003 17.2933 49.5262 16.7804 49.7288 16.7887C49.7638 16.7901 49.7327 16.8658 49.6731 16.9544ZM49.2816 17.1135C49.3715 17.3131 49.3715 17.3131 49.097 17.3509C48.8435 17.3896 48.7603 17.5402 48.9529 17.625C49.0079 17.6483 49.1203 17.6389 49.1986 17.607C49.2914 17.5618 49.3333 17.5635 49.3316 17.6054C49.3279 17.6963 49.0101 17.7674 48.8726 17.7058C48.6938 17.6285 48.6079 17.331 48.7069 17.1321C48.8209 16.9127 49.1781 16.9063 49.2816 17.1135ZM52.3443 17.189C52.4649 17.3199 52.4332 17.5846 52.2775 17.6272C52.1855 17.6515 52.1553 17.7063 52.1714 17.8259C52.2209 18.1569 51.8064 18.196 51.567 17.8853C51.4673 17.7553 51.5899 17.4943 51.7507 17.5008C51.8135 17.5034 51.8583 17.4352 51.862 17.3444C51.8657 17.2535 51.8906 17.1566 51.9194 17.1367C51.9994 17.063 52.2571 17.0945 52.3443 17.189ZM48.44 17.1562C48.4386 17.1912 48.4165 17.2183 48.3885 17.2171C48.097 17.1563 48.0667 17.386 48.3579 17.4539C48.6905 17.5374 48.5831 17.939 48.2413 17.9111C48.1016 17.9054 48.1016 17.9054 48.2439 17.8482C48.5067 17.7539 48.5037 17.6558 48.2494 17.5404C47.9884 17.4178 47.946 17.2551 48.1462 17.1513C48.3036 17.0667 48.4437 17.0654 48.44 17.1562ZM47.4489 17.4309C47.3902 17.4985 47.3708 17.6307 47.3914 17.8135C47.4275 18.13 47.3198 18.1956 47.2694 17.8856C47.253 17.7729 47.2179 17.6035 47.1942 17.4975C47.1653 17.3494 47.1804 17.322 47.2628 17.3603C47.3178 17.3836 47.3886 17.3655 47.4182 17.3247C47.4479 17.2839 47.4837 17.2643 47.5038 17.2861C47.5239 17.308 47.5004 17.37 47.4489 17.4309ZM53.026 17.6367C53.2003 17.8258 53.0099 18.378 52.7171 18.52C52.6028 18.5784 52.5332 18.5686 52.4041 18.4723C52.3155 18.4127 52.2421 18.3257 52.2438 18.2838C52.2506 18.1161 52.4756 17.7473 52.6266 17.6484C52.8276 17.5236 52.9188 17.5203 53.026 17.6367ZM45.4147 18.0551C45.4278 18.0766 45.4872 17.9951 45.5409 17.8783C45.5944 17.7684 45.6612 17.6732 45.6962 17.6746C45.7311 17.676 45.7137 17.7593 45.6678 17.8554C45.5841 18.02 45.5897 18.0552 45.7724 18.2096C45.8805 18.305 45.9467 18.3987 45.9246 18.4258C45.8958 18.4456 45.786 18.3922 45.6846 18.3041L45.4952 18.1424L45.445 18.3433C45.387 18.5649 45.3677 18.5222 45.2242 17.9214C45.1704 17.6952 45.1512 17.4775 45.1812 17.4297C45.2184 17.3752 45.2703 17.4753 45.3107 17.6869C45.3522 17.8706 45.3943 18.0403 45.4147 18.0551ZM46.906 17.5278C47.0954 17.6895 47.1117 17.9771 46.9372 18.138C46.7554 18.3056 46.5941 18.3131 46.426 18.1452C46.2578 17.9774 46.2846 17.6635 46.4786 17.5384C46.6727 17.4133 46.7568 17.4098 46.906 17.5278ZM34.0067 17.6892C34.1185 17.6938 34.2082 17.7254 34.2065 17.7673C34.2051 17.8023 34.1128 17.8335 33.994 17.8287C33.7914 17.8205 33.7838 17.8341 33.757 18.148L33.7294 18.4829L33.7221 18.1466C33.7069 17.831 33.6935 17.8165 33.4979 17.8085C33.3861 17.804 33.2967 17.7653 33.2981 17.7304C33.2998 17.6885 33.3987 17.6645 33.5106 17.669C33.6992 17.6767 33.721 17.6566 33.7435 17.4475L33.7596 17.2242L33.7785 17.449C33.7982 17.6527 33.825 17.6818 34.0067 17.6892ZM35.8877 17.9057C35.9995 17.9102 36.0892 17.9419 36.0875 17.9838C36.0861 18.0188 35.9938 18.05 35.875 18.0452C35.7283 18.0392 35.664 18.0716 35.6536 18.1552C35.6418 18.2737 35.6348 18.2734 35.6117 18.1534C35.5935 18.0827 35.5187 18.0307 35.4138 18.0264C35.323 18.0227 35.2476 17.9847 35.249 17.9497C35.2507 17.9078 35.3287 17.883 35.4265 17.8869C35.5733 17.8929 35.6026 17.8591 35.6246 17.664L35.6406 17.4407L35.6595 17.6654C35.6792 17.8692 35.706 17.8983 35.8877 17.9057ZM44.8737 17.9351C44.6019 18.0781 44.5458 18.2508 44.7201 18.4398C44.7939 18.5198 44.8909 18.5448 45.0038 18.5214C45.1167 18.498 45.1581 18.5136 45.1282 18.5614C45.061 18.6637 44.6985 18.6279 44.6055 18.5052C44.4128 18.2524 44.5836 17.8393 44.8701 17.851C45.0165 17.8639 45.0165 17.8639 44.8737 17.9351ZM33.052 17.9304C33.2127 17.9369 33.2188 17.9582 33.2012 18.3914C33.1833 18.8316 33.1757 18.8453 33.008 18.8385C32.8753 18.8331 32.8319 18.8663 32.8201 18.9848L32.8136 19.1456L32.7572 18.9823C32.7196 18.8758 32.6377 18.8234 32.5189 18.8186C32.3512 18.8118 32.3448 18.7975 32.3624 18.3643C32.3803 17.9241 32.3878 17.9104 32.5774 17.8971C32.7387 17.8896 32.7756 17.8421 32.8118 17.6406L32.8497 17.3972L32.8671 17.6569C32.8787 17.8883 32.9052 17.9244 33.052 17.9304ZM53.9575 18.6545C53.8935 18.6799 53.7461 18.8628 53.6123 19.0534C53.4856 19.2442 53.3608 19.3861 53.3407 19.3643C53.3206 19.3425 53.4119 19.1642 53.5386 18.9734C53.6726 18.7759 53.7644 18.5836 53.7522 18.5411C53.7402 18.4916 53.7919 18.4238 53.8778 18.3783C54.0064 18.3135 54.0271 18.3213 54.0429 18.448C54.0535 18.5324 54.0149 18.6218 53.9575 18.6545ZM26.5323 19.3871C26.7096 20.5352 26.846 21.4857 26.8317 21.4921C26.7735 21.5457 25.6766 21.6691 25.6431 21.6327C25.6163 21.6036 25.4707 20.7088 25.3179 19.6457C25.1582 18.5823 25.0207 17.6598 25.0023 17.5961C24.9781 17.5041 25.0776 17.4661 25.4866 17.3918C25.7684 17.3472 26.0499 17.3097 26.1061 17.305C26.1972 17.3017 26.2785 17.7109 26.5323 19.3871ZM44.2689 18.1765C44.3426 18.2565 44.4004 18.3848 44.3973 18.4617C44.3907 18.6224 44.1496 18.8716 43.9959 18.8653C43.8422 18.8591 43.6221 18.5912 43.6292 18.4165C43.6369 18.2278 43.8343 18.0189 44.009 18.026C44.0789 18.0288 44.1952 18.0965 44.2689 18.1765ZM11.2296 17.547C11.3251 18.1248 11.3226 18.1877 11.1988 18.1337C11.1437 18.1104 11.0724 18.1425 11.0352 18.197C10.9451 18.3473 10.2451 18.0039 10.2945 17.8239C10.311 17.7616 10.2795 17.6763 10.225 17.6391C10.1428 17.5938 10.2301 17.5133 10.6093 17.3118C10.8743 17.1616 11.1095 17.0591 11.1229 17.0737C11.1363 17.0882 11.1837 17.3001 11.2296 17.547ZM43.5068 18.8455C43.6032 18.8844 43.6163 18.9059 43.5374 18.9517C43.4228 19.017 43.2636 18.8006 43.2788 18.5982C43.2909 18.4727 43.2979 18.473 43.3339 18.6214C43.3512 18.7131 43.431 18.8144 43.5068 18.8455ZM24.8628 18.9622C24.9457 19.5046 25.0723 20.3496 25.1433 20.8425L25.2749 21.7367L24.9367 21.793C24.7463 21.8272 24.4718 21.8651 24.3239 21.8871L24.0497 21.9179L23.7622 20.0374C23.6083 19.0022 23.4892 18.1435 23.504 18.1231C23.5547 18.0831 24.4914 17.9392 24.6096 17.9581C24.6859 17.9752 24.752 18.2438 24.8628 18.9622ZM49.0461 19.1197C49.0852 19.1913 49.1278 19.347 49.1442 19.4597C49.1785 19.65 49.1561 19.6841 48.9503 19.7527C48.5106 19.8958 48.408 19.4927 48.8358 19.3001C48.9571 19.2421 48.9722 19.2147 48.8979 19.1487C48.8507 19.1047 48.7328 19.079 48.6341 19.0959C48.4999 19.1255 48.4865 19.1109 48.5726 19.0584C48.7379 18.9532 48.9816 18.9841 49.0461 19.1197ZM47.9111 19.3185C48.0234 19.4841 48.1161 19.9568 48.0267 19.9182C47.9853 19.9025 47.9334 19.8024 47.9097 19.6964C47.8378 19.3995 47.7239 19.2759 47.6008 19.3759C47.4998 19.4488 47.4986 19.6517 47.592 19.9355C47.6172 20.0065 47.6079 20.0621 47.559 20.0601C47.524 20.0587 47.4593 19.9301 47.4236 19.7746C47.3528 19.4498 47.2651 19.3692 47.1132 19.4891C47.005 19.5686 47.0077 19.6737 47.1042 20.0556C47.1223 20.1264 47.1061 20.1817 47.0711 20.1803C47.0362 20.1789 46.972 20.0363 46.9369 19.8668C46.8611 19.4928 46.8581 19.3947 46.9341 19.4188C46.9621 19.4199 47.0395 19.4091 47.1108 19.377C47.1748 19.3516 47.2939 19.3494 47.3699 19.3735C47.4459 19.3976 47.5169 19.3725 47.5402 19.3174C47.5939 19.2006 47.8248 19.203 47.9111 19.3185ZM12.2834 18.4857C12.1764 18.7054 12.0645 18.8758 12.0374 18.8537C12.003 18.8383 12.0663 18.6589 12.1654 18.4599C12.2712 18.2683 12.3365 18.0399 12.3186 17.9622C12.2891 17.828 12.2961 17.8283 12.3821 17.9508C12.4684 18.0663 12.4588 18.1289 12.2834 18.4857ZM45.2517 19.4834C45.0945 19.561 45.0729 19.7491 45.2196 19.755C45.2755 19.7573 45.3233 19.7872 45.3216 19.8292C45.3202 19.8641 45.2838 19.8976 45.2419 19.8959C45.193 19.8939 45.1761 19.9632 45.2063 20.0834C45.2227 20.1961 45.2583 20.3515 45.2759 20.4362C45.3333 20.7465 45.1785 20.5933 45.1075 20.2754C45.0656 20.0987 45.0015 19.9561 44.9665 19.9547C44.8827 19.9513 44.9592 19.6184 45.0767 19.4832C45.1133 19.4427 45.1989 19.4042 45.2618 19.4068C45.3593 19.4177 45.359 19.4247 45.2517 19.4834ZM46.617 19.6439C46.7446 19.775 46.7453 20.104 46.6216 20.218C46.5707 20.2649 46.4505 20.295 46.3527 20.291C46.1081 20.2811 46.0081 20.1581 46.0195 19.8785C46.0331 19.5431 46.3961 19.3969 46.617 19.6439ZM45.7426 19.8043C45.6838 19.8719 45.6644 20.0041 45.6911 20.2082C45.739 20.5811 45.6306 20.4927 45.5355 20.0758C45.4458 19.7012 45.4469 19.6733 45.571 19.7203C45.6258 19.7505 45.6892 19.7391 45.7189 19.6983C45.7415 19.6573 45.777 19.6447 45.7972 19.6665C45.8173 19.6883 45.7937 19.7504 45.7426 19.8043ZM42.9357 19.6342C43.457 19.7253 43.3773 19.7921 42.8054 19.7408C42.5404 19.7161 42.3163 19.721 42.3148 19.7559C42.3137 19.7838 42.1741 19.9462 42.0133 20.1146C41.8525 20.283 41.4139 20.7412 41.0477 21.1392C40.6743 21.544 40.3462 21.8666 40.3043 21.8649C40.2134 21.8612 39.6947 21.7072 38.6789 21.3859C38.2435 21.2492 37.8771 21.1363 37.8771 21.1363C37.8701 21.136 37.824 21.2391 37.7702 21.3559C37.7162 21.4797 37.6314 21.6722 37.5706 21.7888C37.5102 21.8983 37.3184 22.3105 37.1348 22.695L36.8056 23.3885L36.1687 22.8727L35.539 22.3501L34.5196 22.8056C33.9565 23.0557 33.487 23.2396 33.4672 23.2108C33.4476 23.175 33.9121 22.9419 34.4967 22.6787L35.5517 22.2106L36.142 22.6686C36.4677 22.9198 36.7611 23.1067 36.7905 23.0729C36.8266 23.0464 37.0482 22.5864 37.2937 22.0575C37.5322 21.5282 37.7539 21.0683 37.783 21.0415C37.8121 21.0147 38.2973 21.1324 38.8643 21.3024C39.431 21.4795 39.9914 21.6422 40.1093 21.668C40.3172 21.7185 40.3678 21.6785 41.334 20.6399C41.8828 20.0533 42.3854 19.5698 42.4483 19.5723C42.5182 19.5752 42.7339 19.605 42.9357 19.6342ZM44.4183 20.5274C44.3587 20.9589 44.2062 21.2677 44.1056 21.1586C44.0788 21.1295 44.0954 21.0672 44.139 21.027C44.2772 20.8996 44.2485 20.7444 44.0307 20.4206C43.9187 20.2481 43.8481 20.0912 43.8772 20.0644C43.9211 20.0172 43.9945 20.1042 44.2045 20.4487C44.2902 20.5781 44.2978 20.5645 44.3598 20.245C44.4562 19.766 44.5033 19.9849 44.4183 20.5274ZM23.4834 20.523C23.5925 21.2834 23.6645 21.9232 23.6427 21.9433C23.6136 21.9702 23.3452 22.0292 23.0422 22.0799L22.4856 22.1693L22.4288 21.845C22.4009 21.6689 22.313 21.0774 22.2301 20.535C22.1541 19.993 22.0762 19.4999 22.0578 19.4361C22.0402 19.3514 22.147 19.3068 22.5767 19.2403C22.8797 19.1896 23.1612 19.152 23.2034 19.1468C23.2454 19.1485 23.3615 19.7341 23.4834 20.523ZM43.4934 20.0348C43.492 20.0697 43.5395 20.1067 43.5954 20.1089C43.7211 20.114 43.7303 20.2334 43.6171 20.2638C43.5533 20.2822 43.5502 20.3591 43.6121 20.5576C43.6609 20.7345 43.7207 20.814 43.7847 20.7886C43.8415 20.7699 43.8828 20.7856 43.8814 20.8205C43.8797 20.8624 43.8157 20.8878 43.7388 20.8847C43.606 20.8793 43.5731 20.829 43.4358 20.4174C43.3611 20.1904 43.3565 19.9592 43.4333 19.9624C43.4683 19.9638 43.4951 19.9929 43.4934 20.0348ZM10.3928 19.1928C10.4883 19.7706 10.4857 19.8335 10.3619 19.7795C10.3069 19.7562 10.2356 19.7883 10.1984 19.8428C10.1083 19.9931 9.40829 19.6497 9.45761 19.4697C9.47414 19.4074 9.44261 19.3221 9.38813 19.2849C9.30598 19.2396 9.39296 19.1661 9.7724 18.9576C10.0442 18.8146 10.2796 18.7052 10.293 18.7198C10.3064 18.7343 10.3468 18.9459 10.3928 19.1928ZM49.3188 21.0206C49.3578 21.0922 49.4008 21.2409 49.4169 21.3606C49.4512 21.5509 49.4288 21.585 49.237 21.6542C49.0662 21.7243 48.9963 21.7214 48.922 21.6554C48.7667 21.5161 48.8073 21.3778 49.0436 21.2474C49.2152 21.1564 49.2449 21.1156 49.1706 21.0496C49.1167 20.9984 49.0468 20.9955 48.9825 21.0279C48.8105 21.1259 48.7208 21.0943 48.8721 20.9884C49.0595 20.8561 49.2479 20.8707 49.3188 21.0206ZM11.7911 19.7466C11.7967 19.7818 11.7618 19.7804 11.7277 19.758C11.6869 19.7284 11.5685 19.8845 11.4538 20.1248C11.3463 20.3584 11.2268 20.5426 11.1919 20.5411C11.108 20.5377 11.1237 20.4964 11.335 20.12C11.4408 19.9283 11.5119 19.7282 11.4932 19.6715C11.4742 19.6217 11.5193 19.5466 11.5836 19.5142C11.698 19.4558 11.7851 19.5504 11.7911 19.7466ZM21.7963 20.0134C21.7958 20.0274 21.8664 20.5272 21.9613 21.1191C22.049 21.7176 22.113 22.2101 22.106 22.2098C22.0268 22.2626 20.9579 22.3871 20.9244 22.3508C20.8643 22.2783 20.5624 20.2362 20.6063 20.189C20.6863 20.1153 21.7989 19.9506 21.7963 20.0134ZM47.2176 21.3971C47.2934 21.4282 47.2928 21.4422 47.195 21.4382C47.1038 21.4415 47.0745 21.4753 47.0982 21.5812C47.116 21.659 47.1528 21.7864 47.1707 21.8642C47.1885 21.9419 47.2558 22.0076 47.3187 22.0102C47.3956 22.0133 47.4087 22.0348 47.3578 22.0818C47.2269 22.2024 47.0643 22.0698 47.0323 21.8235C47.0098 21.6896 46.9456 21.547 46.8771 21.5093C46.7952 21.4569 46.7891 21.4357 46.8593 21.4315C46.9082 21.4335 46.9378 21.3927 46.9192 21.336C46.8689 21.194 46.9551 21.1415 47.0414 21.257C47.081 21.3146 47.1626 21.3739 47.2176 21.3971ZM48.0747 21.32C48.2496 21.4951 48.2158 21.8087 48.0005 21.9399C47.7852 22.0711 47.5574 21.9919 47.476 21.7576C47.3948 21.5163 47.4035 21.4747 47.5707 21.3205C47.7452 21.1596 47.9063 21.1591 48.0747 21.32ZM43.0183 21.5623C42.5842 22.0836 42.4226 22.441 42.3124 23.0875C42.2577 23.4002 42.1585 23.7742 42.0896 23.9183C41.9513 24.2207 41.4972 24.5452 40.8205 24.8326C40.2935 25.0562 40.0969 25.2442 39.968 25.6589C39.7747 26.281 39.3062 26.7869 38.6805 27.0274C38.4954 27.1039 38.1161 27.1374 37.4651 27.139C36.345 27.1424 36.217 27.1932 35.4199 27.8607C35.1299 28.1079 34.8771 28.3006 34.8637 28.2861C34.8103 28.2209 35.9527 27.3224 36.2595 27.1809C36.5377 27.0523 36.6923 27.0376 37.3281 27.0634C37.7824 27.0819 38.2103 27.0573 38.4295 27.0032C39.1155 26.8281 39.6909 26.2776 39.901 25.5862C40.0374 25.1578 40.234 24.9698 40.8751 24.6949C41.83 24.2787 42.0359 24.0351 42.214 23.0975C42.3565 22.3473 42.5558 21.9215 42.9734 21.4625C43.3616 21.0373 43.3937 21.1086 43.0183 21.5623ZM46.3381 21.6833C46.2357 21.7911 46.2189 21.8605 46.2666 22.0654C46.3028 22.2068 46.2983 22.3186 46.2703 22.3175C46.2354 22.3161 46.1779 22.1808 46.1358 22.0111C46.1004 21.8486 46.058 21.6859 46.0385 21.6501C46.0189 21.6144 46.0405 21.6012 46.0955 21.6245C46.1506 21.6477 46.2358 21.6162 46.2937 21.5695C46.4394 21.4285 46.4841 21.5353 46.3381 21.6833ZM45.0501 22.0299C45.1566 22.5102 45.166 22.6226 45.0821 22.6192C45.0332 22.6172 44.8253 21.7058 44.8327 21.5241C44.8392 21.3634 44.9542 21.6341 45.0501 22.0299ZM20.4126 21.511L20.5492 22.4545L20.1969 22.5102C19.2602 22.6541 19.3225 22.6706 19.2791 22.3609C19.2641 22.2133 19.197 21.7976 19.1419 21.4314C19.0798 21.0649 19.0431 20.7624 19.0504 20.7557C19.0719 20.7426 20.0867 20.5739 20.1991 20.5644C20.241 20.5661 20.3357 20.99 20.4126 21.511ZM44.5749 21.6676C44.593 21.7384 44.634 21.936 44.6688 22.1124C44.7036 22.2888 44.7446 22.4864 44.763 22.5502C44.7811 22.6209 44.7649 22.6763 44.7299 22.6748C44.695 22.6734 44.6191 22.4743 44.5661 22.2272C44.5059 21.9868 44.4463 21.7324 44.4351 21.6619C44.4167 21.5982 44.433 21.5429 44.4749 21.5446C44.5098 21.546 44.5565 21.6039 44.5749 21.6676ZM45.8371 21.7819C45.9846 21.9419 45.9314 22.0448 45.6561 22.1035C45.3737 22.1621 45.4024 22.3172 45.6959 22.3291C45.9335 22.3388 45.9868 22.404 45.8023 22.4665C45.4973 22.566 45.2877 22.3825 45.302 22.0332C45.3159 21.6908 45.6156 21.549 45.8371 21.7819ZM9.55593 20.8386C9.65142 21.4164 9.64887 21.4793 9.52507 21.4253C9.47002 21.402 9.39873 21.4341 9.36151 21.4886C9.27141 21.6389 8.57144 21.2955 8.62076 21.1155C8.63729 21.0532 8.60576 20.9679 8.55099 20.9377C8.47612 20.8857 8.57037 20.8055 8.94226 20.6107C9.20734 20.4605 9.44277 20.351 9.45618 20.3656C9.46958 20.3801 9.50997 20.5917 9.55593 20.8386ZM14.0358 20.8318C14.1121 21.1918 13.7574 21.6534 13.474 21.5649C13.087 21.4441 13.3721 20.6298 13.7913 20.6468C13.952 20.6534 14.0065 20.6906 14.0358 20.8318ZM44.2758 22.1384C44.4369 22.306 44.4064 22.3677 44.152 22.4274C43.8202 22.4979 43.841 22.6737 44.1698 22.68C44.3168 22.679 44.4135 22.711 44.3914 22.7381C44.3318 22.8266 43.9131 22.7956 43.8192 22.6938C43.7723 22.6429 43.7428 22.5087 43.7476 22.3899C43.7621 22.0335 44.0548 21.8915 44.2758 22.1384ZM10.9543 21.3924C10.9598 21.4276 10.9249 21.4262 10.8908 21.4038C10.85 21.3742 10.7317 21.5303 10.6169 21.7707C10.5094 22.0043 10.39 22.1884 10.355 22.187C10.2712 22.1836 10.2868 22.1422 10.4981 21.7658C10.6039 21.5741 10.675 21.3741 10.6564 21.3173C10.6374 21.2675 10.6824 21.1924 10.7467 21.16C10.8611 21.1016 10.9483 21.1962 10.9543 21.3924ZM32.4658 22.1901C32.4426 22.2452 32.4224 22.2234 32.4256 22.1465C32.4217 22.0694 32.4444 22.0283 32.4642 22.0571C32.4843 22.0789 32.4887 22.1421 32.4658 22.1901ZM43.5785 22.761C43.5591 22.8932 43.508 22.9471 43.3749 22.9487C43.1994 22.9626 43.1994 22.9626 43.3629 22.8992C43.555 22.823 43.5741 22.6978 43.3874 22.6412C43.187 22.5771 43.2257 22.4877 43.4336 22.5381C43.5722 22.5718 43.6057 22.6081 43.5785 22.761ZM32.3768 22.3125C32.4841 22.4289 32.543 22.5292 32.5011 22.5275C32.4661 22.5261 32.3513 22.4235 32.251 22.3074C32.1441 22.1841 32.0849 22.0907 32.1198 22.0921C32.1548 22.0935 32.2698 22.1892 32.3768 22.3125ZM32.9326 22.2441C32.9579 22.3081 32.9406 22.3914 32.9042 22.4249C32.8606 22.4652 32.8407 22.4364 32.8509 22.3598C32.8613 22.2762 32.8283 22.2259 32.7512 22.2297C32.681 22.2339 32.6469 22.2115 32.6693 22.1774C32.7364 22.0752 32.8888 22.1163 32.9326 22.2441ZM14.5108 21.544C14.4945 21.5994 14.5467 21.6925 14.6213 21.7515C14.7294 21.8469 14.735 21.8821 14.6594 22.019C14.5688 22.1833 14.5618 22.183 14.6033 22.0237C14.629 21.9058 14.5897 21.8412 14.4254 21.7505C14.2273 21.6305 14.2206 21.6232 14.3501 21.5375C14.5229 21.4185 14.5436 21.4264 14.5108 21.544ZM18.9013 22.1845C18.9408 22.4171 18.953 22.6346 18.9306 22.6687C18.871 22.7572 17.8306 22.8689 17.7705 22.7965C17.737 22.7601 17.6893 22.5552 17.6635 22.3302L17.6095 21.936L18.1099 21.8514C18.8709 21.7283 18.8298 21.7056 18.9013 22.1845ZM32.1749 22.4583C32.1517 22.5133 32.1316 22.4915 32.1347 22.4146C32.1308 22.3375 32.1535 22.2964 32.1733 22.3252C32.1934 22.347 32.1979 22.4102 32.1749 22.4583ZM47.062 23.5046C47.0032 23.5722 46.9838 23.7044 47.0044 23.8872C47.0191 24.0418 47.014 24.1676 46.9791 24.1662C46.9301 24.1642 46.7534 23.52 46.7961 23.5008C46.8101 23.5013 46.8817 23.4623 46.9603 23.4235C47.1389 23.3327 47.1864 23.3697 47.062 23.5046ZM17.3233 22.4353C17.4129 22.9849 17.4641 22.931 16.7951 23.0298C16.4572 23.079 16.1757 23.1166 16.1692 23.1023C16.1625 23.095 16.1408 22.9402 16.12 22.7643L16.0844 22.4339L16.6407 22.3516C16.9435 22.3079 17.211 22.2698 17.2392 22.2639C17.2675 22.2581 17.3063 22.3366 17.3233 22.4353ZM46.5325 23.616C46.702 23.7489 46.6114 23.9132 46.3439 23.9513C46.0408 24.002 46.1042 24.1656 46.4256 24.1786C46.74 24.1914 46.7579 24.2691 46.4618 24.3201C46.0389 24.3939 45.8025 23.8383 46.1615 23.615C46.3556 23.4899 46.3696 23.4904 46.5325 23.616ZM13.2344 22.465C13.3874 22.8352 12.8662 23.43 12.6031 23.1883C12.3601 22.9684 12.654 22.2804 12.9894 22.2941C13.1082 22.2989 13.1898 22.3582 13.2344 22.465ZM45.7629 24.1237C45.6793 24.6313 45.5852 24.8794 45.4664 24.8746C45.3686 24.8706 45.3859 24.7873 45.511 24.6384C45.6067 24.5233 45.5947 24.4738 45.3836 24.1573C45.1261 23.7758 45.186 23.6803 45.451 24.048L45.6166 24.2787L45.6839 24.0015C45.7363 23.7447 45.7831 23.6276 45.825 23.6293C45.832 23.6296 45.8089 23.8526 45.7629 24.1237ZM43.5743 24.0697C43.6245 24.2117 43.6658 24.4024 43.6621 24.4932C43.653 24.7168 43.8787 24.845 44.0315 24.7042C44.1766 24.5771 44.1812 24.4653 44.0622 24.2925C44.0097 24.2064 43.927 24.175 43.821 24.1987C43.6516 24.2338 43.6207 24.1346 43.7909 24.0785C43.9612 24.0224 44.0098 24.0314 44.1235 24.162C44.2576 24.3075 44.2481 24.713 44.1038 24.8192C44.0459 24.8658 43.9332 24.8822 43.8572 24.8581C43.7812 24.834 43.7177 24.8455 43.7163 24.8804C43.7149 24.9153 43.6928 24.9424 43.6648 24.9413C43.6159 24.9393 43.3946 24.0134 43.4078 23.86C43.4127 23.7412 43.4861 23.8281 43.5743 24.0697ZM45.0668 24.2004C45.1084 24.3841 45.1304 24.5319 45.1161 24.5384C45.1021 24.5378 45.0233 24.5836 44.9377 24.6221C44.6159 24.791 44.4938 24.695 44.4083 24.2156C44.3582 23.8986 44.4825 23.9387 44.5536 24.2565C44.5884 24.4329 44.6543 24.5336 44.7376 24.551C44.8969 24.5924 45.0007 24.4497 44.9595 24.259C44.9416 24.1813 44.9115 24.0611 44.9004 23.9906C44.882 23.9269 44.8982 23.8716 44.9332 23.873C44.9681 23.8744 45.032 24.024 45.0668 24.2004ZM14.1496 22.8522C14.2851 22.9627 14.2312 23.2545 14.0845 23.2485C14.0356 23.2465 13.9967 23.3429 13.9915 23.4687C13.983 23.6784 13.9612 23.6985 13.7647 23.7115C13.6314 23.7201 13.514 23.6803 13.4606 23.6151C13.3612 23.4781 13.4174 23.4734 13.6015 23.5929C13.7105 23.6673 13.7594 23.6693 13.8612 23.5754C13.9776 23.4682 13.9784 23.4472 13.858 23.3093C13.7379 23.1644 13.7379 23.1644 13.9196 23.1718C14.1572 23.1815 14.1873 22.9587 13.9682 22.8378C13.8654 22.7847 13.8456 22.7559 13.9224 22.759C13.9786 22.7543 14.0817 22.8005 14.1496 22.8522ZM14.9032 23.2538C15.0373 23.3993 15.0344 23.4691 14.8831 23.575C14.8113 23.621 14.75 23.7515 14.7451 23.8703C14.738 24.045 14.7087 24.0788 14.5401 24.093C14.175 24.1201 14.0076 23.7633 14.3015 23.5933C14.3803 23.5475 14.4475 23.4453 14.4509 23.3614C14.454 23.2845 14.4787 23.1946 14.5075 23.1747C14.5877 23.094 14.7959 23.1375 14.9032 23.2538ZM15.6979 23.6781C15.6947 23.755 15.6112 23.7446 15.4888 23.6556C15.4273 23.6181 15.3575 23.6153 15.2996 23.6619C15.2201 23.7217 15.2254 23.7639 15.3388 23.9015C15.426 23.996 15.4695 24.1308 15.4515 24.228C15.4249 24.3669 15.3821 24.3862 15.1515 24.3768C14.9698 24.3694 14.8664 24.3302 14.8483 24.2595C14.8238 24.1745 14.838 24.1681 14.9121 24.2411C15.0327 24.372 15.215 24.3654 15.3322 24.2372C15.413 24.1425 15.4074 24.1072 15.2591 23.9682C15.1041 23.8219 15.0979 23.8007 15.2026 23.637C15.3 23.4799 15.3285 23.4671 15.5073 23.5444C15.6104 23.5905 15.699 23.6501 15.6979 23.6781ZM7.88223 24.1302C7.97772 24.708 7.97516 24.7709 7.85137 24.7169C7.79632 24.6937 7.72531 24.7188 7.6881 24.7733C7.59771 24.9306 6.89075 24.5869 6.93978 24.4139C6.96359 24.3448 6.93206 24.2596 6.87758 24.2224C6.79543 24.177 6.88968 24.0969 7.26157 23.902C7.53336 23.7591 7.76878 23.6496 7.78219 23.6642C7.7956 23.6787 7.83627 23.8834 7.88223 24.1302ZM16.1669 24.8801C16.1062 24.9966 16.0399 25.0779 16.0195 25.063C15.9659 25.0049 16.1646 24.593 16.2258 24.6375C16.2599 24.6599 16.2344 24.7708 16.1669 24.8801ZM9.18133 24.715C9.13184 24.727 9.01992 24.8974 8.92754 25.1036C8.82818 25.3096 8.72325 25.4803 8.68831 25.4789C8.62542 25.4763 8.70439 25.2555 8.89301 24.9202C8.96073 24.804 9.00106 24.6727 8.98879 24.6302C8.97681 24.5807 9.01459 24.5122 9.07947 24.4659C9.17315 24.3997 9.20053 24.4148 9.23036 24.542C9.24763 24.6337 9.22382 24.7027 9.18133 24.715ZM11.5429 25.6789C11.6636 25.8098 11.6338 26.0256 11.4628 26.2706C11.1942 26.6797 10.7259 26.4926 10.8774 26.0368C11.0202 25.6227 11.3351 25.4535 11.5429 25.6789ZM12.4417 26.2964C12.3104 26.5991 12.0549 27.0296 12.0214 26.9933C12.001 26.9784 12.0719 26.7853 12.1782 26.5797C12.3461 26.2365 12.3548 26.1949 12.2512 26.1627C12.1821 26.1389 12.2176 26.1263 12.3227 26.1236C12.4977 26.1237 12.5111 26.1383 12.4417 26.2964ZM8.40549 26.2373C8.42333 26.315 8.39981 26.3771 8.35788 26.3753C8.30897 26.3734 8.19006 26.5435 8.09069 26.7494C7.99133 26.9554 7.8864 27.1261 7.85146 27.1247C7.78857 27.1221 7.86754 26.9014 8.05587 26.573C8.12359 26.4568 8.15666 26.3322 8.13041 26.2891C8.10416 26.246 8.13467 26.1843 8.18501 26.1513C8.33545 26.0665 8.36982 26.0819 8.40549 26.2373ZM13.2924 26.548C13.3122 26.5768 13.2646 26.7149 13.1818 26.8585C13.0987 27.0091 13.0659 27.1267 13.1078 27.1284C13.1427 27.1299 13.1765 27.1592 13.1748 27.2012C13.1734 27.2361 13.1239 27.2481 13.0689 27.2248C13.0071 27.1943 12.9641 27.2206 12.9612 27.2905C12.9587 27.3534 12.9217 27.4008 12.8798 27.3991C12.8379 27.3974 12.8262 27.341 12.8573 27.2652C12.8892 27.1685 12.8493 27.1179 12.6914 27.0415C12.4508 26.9337 12.4737 26.8857 12.896 26.6579C13.2035 26.4954 13.2318 26.4895 13.2924 26.548ZM14.0717 27.0066C14.0501 27.0198 13.9668 27.0024 13.892 26.9503C13.8098 26.905 13.7126 26.8871 13.6768 26.9066C13.5694 26.9652 13.5838 27.1268 13.7006 27.1805C13.8384 27.2351 13.8228 27.6195 13.6738 27.6694C13.4822 27.7316 13.3154 27.7038 13.2294 27.5813C13.1492 27.4871 13.1635 27.4807 13.3211 27.5641C13.4653 27.6329 13.5281 27.6355 13.6148 27.569C13.7737 27.4495 13.7517 27.3016 13.5597 27.2028L13.3952 27.1191L13.5429 26.9291C13.6906 26.7392 13.6976 26.7395 13.9029 26.8528C14.0125 26.9132 14.0935 26.9865 14.0717 27.0066ZM14.774 27.6371L14.6285 27.7712L14.6493 27.6041C14.653 27.5132 14.7135 27.4037 14.7783 27.3574C14.9514 27.2314 14.9555 27.4765 14.774 27.6371ZM10.639 27.252C10.7664 27.3902 10.7161 27.7661 10.5471 27.9622C10.3485 28.1991 10.0346 28.1724 10.0099 27.9194C9.98466 27.6804 10.0715 27.4389 10.2314 27.2915C10.3987 27.1373 10.5251 27.1284 10.639 27.252ZM11.7503 27.8082C11.7492 27.8361 11.696 27.9389 11.6283 28.0552C11.5675 28.1717 11.5333 28.3243 11.5579 28.4093C11.5818 28.5083 11.5667 28.5356 11.5189 28.5057C11.4782 28.476 11.4211 28.5017 11.3979 28.5568C11.3285 28.7149 11.2108 28.6821 11.2663 28.5234C11.3055 28.42 11.2728 28.3627 11.1426 28.2944C11.0465 28.2485 10.9649 28.1892 10.9657 28.1682C10.9669 28.1403 11.1036 28.0478 11.2756 27.9498C11.5622 27.7865 11.7534 27.7313 11.7503 27.8082ZM7.5508 27.8054C7.54938 27.8403 7.56694 27.925 7.59205 27.996C7.61659 28.081 7.60875 28.1017 7.55427 28.0645C7.4995 28.0343 7.39684 28.1491 7.2681 28.3888C7.00279 28.889 6.89797 28.8847 7.14232 28.3837C7.24896 28.1711 7.31339 27.9637 7.29384 27.9279C7.2676 27.8849 7.29782 27.8301 7.34816 27.7971C7.47706 27.7254 7.55393 27.7285 7.5508 27.8054ZM12.4351 28.179C12.4346 28.193 12.3805 28.3168 12.3117 28.4609C12.2501 28.5984 12.2098 28.7298 12.2299 28.7516C12.2567 28.7807 12.015 29.0438 11.9521 29.0413C11.9382 29.0407 11.9483 28.9641 11.9659 28.8738C11.9993 28.7422 11.973 28.6991 11.8277 28.6582C11.5787 28.5851 11.6028 28.5091 11.9607 28.3137C12.2328 28.1638 12.438 28.1091 12.4351 28.179ZM10.7158 28.2911C10.7353 28.3268 10.7199 28.3612 10.685 28.3598C10.643 28.3581 10.6095 28.3217 10.6109 28.2868C10.6126 28.2449 10.6278 28.2175 10.6417 28.218C10.6627 28.2189 10.6965 28.2483 10.7158 28.2911ZM13.0393 28.4695C13.1666 28.6077 13.1164 28.9836 12.9474 29.1797C12.7488 29.4166 12.4349 29.3899 12.4102 29.1369C12.3849 28.8979 12.4717 28.6564 12.6317 28.5089C12.799 28.3548 12.9253 28.3459 13.0393 28.4695ZM6.434 28.4179C6.5996 28.6486 6.60432 28.7048 6.5688 29.5783L6.53129 30.5007L6.3566 30.4936C6.23781 30.4887 6.1802 30.5284 6.17008 30.605C6.15827 30.7235 6.15128 30.7232 6.12816 30.6033C6.11004 30.5325 6.03516 30.4805 5.93034 30.4762L5.76264 30.4694L5.80952 29.3164L5.8564 28.1634L6.05905 28.1717C6.21278 28.1779 6.31504 28.2451 6.434 28.4179ZM9.81529 28.9194C9.81415 28.9473 9.43379 29.6948 9.38175 29.7697C9.36721 29.7831 9.34624 29.7822 9.32613 29.7604C9.30602 29.7386 9.36988 29.5452 9.47623 29.3395C9.64417 28.9964 9.65286 28.9548 9.54918 28.9226C9.48016 28.8987 9.51566 28.8862 9.62775 28.8837C9.73257 28.888 9.81614 28.8984 9.81529 28.9194ZM10.7765 29.3784C10.8928 29.4461 10.9808 29.5197 10.9796 29.5477C10.9695 29.6242 10.184 30.1802 10.1435 30.1436C10.1234 30.1218 10.2688 29.9877 10.4704 29.8489C10.6723 29.7032 10.8317 29.5696 10.8396 29.549C10.8404 29.528 10.7385 29.4539 10.6222 29.3861C10.4987 29.3251 10.4381 29.2667 10.487 29.2687C10.5362 29.2637 10.667 29.318 10.7765 29.3784ZM11.4695 29.7216C11.6198 29.8117 11.6341 30.1482 11.4874 30.1423C11.4245 30.1397 11.3934 30.2154 11.3945 30.3625C11.3932 30.5654 11.3711 30.5925 11.1956 30.6063C11.0832 30.6158 10.9515 30.5824 10.8976 30.5312C10.7557 30.4065 10.793 30.177 10.9555 30.1416C11.0614 30.1179 11.0844 30.0699 11.0613 29.9499C11.0379 29.837 11.0686 29.7683 11.1618 29.7161C11.3262 29.6317 11.3122 29.6312 11.4695 29.7216ZM5.54494 29.9706L5.71265 29.9774L5.67855 30.816L5.64445 31.6545L5.46976 31.6474C5.33699 31.642 5.29364 31.6752 5.28183 31.7937L5.27529 31.9545L5.21894 31.7912C5.18741 31.7059 5.09941 31.6323 5.02254 31.6292C4.90375 31.6244 4.88506 31.5676 4.87546 31.2873C4.86887 31.105 4.88422 30.7277 4.90956 30.4487C4.95013 29.9674 4.96496 29.947 5.12567 29.9536C5.25844 29.959 5.2948 29.9254 5.30833 29.765L5.32997 29.5769L5.35025 29.7667C5.36496 29.9213 5.41217 29.9652 5.54494 29.9706ZM9.91384 29.9383C9.91242 29.9732 9.88305 30.007 9.84112 30.0053C9.80618 30.0039 9.77266 29.9675 9.77409 29.9326C9.77579 29.8907 9.81187 29.8641 9.8468 29.8656C9.88873 29.8673 9.91555 29.8964 9.91384 29.9383ZM8.97315 30.523C9.10251 30.6122 9.0662 30.9887 8.91764 31.1997C8.7397 31.4444 8.64386 31.3915 8.81538 31.1325C8.97178 30.9009 9.01752 30.6368 8.91526 30.5696C8.8063 30.4952 8.63433 30.5932 8.53525 30.7921C8.48179 30.902 8.41606 30.9693 8.38867 30.9542C8.36157 30.9321 8.3868 30.8281 8.44725 30.7186C8.59053 30.4654 8.78261 30.3892 8.97315 30.523ZM9.93882 31.0452C10.0874 31.1772 10.0638 31.4142 9.8961 31.4074C9.85417 31.4057 9.81497 31.5091 9.81014 31.6279C9.80162 31.8375 9.7798 31.8577 9.58329 31.8707C9.44995 31.8792 9.33258 31.8395 9.27924 31.7743C9.22618 31.7022 9.22788 31.6602 9.26981 31.6619C9.31173 31.6636 9.3665 31.6939 9.38576 31.7366C9.45109 31.8513 9.67584 31.8324 9.72986 31.7086C9.76066 31.6399 9.72998 31.5337 9.66993 31.4612C9.56324 31.3309 9.56353 31.3239 9.70328 31.3296C9.92689 31.3387 9.97478 31.1936 9.79907 31.0395C9.71806 30.9662 9.6784 30.9086 9.72033 30.9103C9.75527 30.9117 9.85781 30.9719 9.93882 31.0452ZM4.47642 31.117C4.46989 31.2778 4.50284 31.3281 4.60066 31.3321C4.72644 31.3372 4.73786 31.4007 4.72871 32.1422C4.7245 32.59 4.70859 32.9813 4.69319 33.0157C4.67751 33.057 4.60649 33.0822 4.52963 33.079C4.43879 33.0753 4.39487 33.1225 4.38362 33.2271L4.37709 33.3878L4.32073 33.2245C4.2892 33.1392 4.2012 33.0657 4.12434 33.0625C4.04747 33.0594 3.97231 33.0144 3.96032 32.9649C3.94107 32.9221 3.91073 33.1519 3.89709 33.4873C3.86538 34.0949 3.86509 34.1019 3.6904 34.0948C3.57161 34.09 3.514 34.1296 3.50389 34.2062C3.49207 34.3247 3.48508 34.3244 3.46196 34.2045C3.44384 34.1338 3.36896 34.0817 3.27113 34.0778C3.11041 34.0712 3.10428 34.05 3.10804 33.4412C3.10827 33.0912 3.12804 32.7771 3.13645 32.7424C3.15213 32.701 3.24411 32.6768 3.33495 32.6805C3.47471 32.6862 3.50408 32.6524 3.52601 32.4573L3.54209 32.2339L3.56095 32.4587C3.57424 32.6482 3.61446 32.6918 3.74723 32.6972C3.83807 32.7009 3.92721 32.7466 3.93948 32.7891C3.95845 32.8388 3.99192 32.5322 4.00953 32.099C4.04721 31.3446 4.05533 31.3169 4.20992 31.3022C4.32928 31.293 4.36621 31.2456 4.35848 31.0913C4.35576 30.9862 4.38013 30.9032 4.42206 30.9049C4.45699 30.9063 4.48125 30.9983 4.47642 31.117ZM9.07699 31.5841C9.07557 31.619 9.0462 31.6528 9.00427 31.6511C8.96933 31.6497 8.93581 31.6134 8.93724 31.5784C8.93894 31.5365 8.97502 31.51 9.00995 31.5114C9.05188 31.5131 9.0787 31.5422 9.07699 31.5841ZM40.8717 33.7309C40.8673 34.3536 40.7742 34.4059 40.7498 33.8029C40.7376 33.5854 40.6966 33.3878 40.6553 33.3721C40.5449 33.3326 40.6507 33.1409 40.7686 33.1667C40.8449 33.1838 40.8742 33.325 40.8717 33.7309ZM39.8327 33.2897C40.0003 33.4715 40.0263 33.8645 39.8853 34.0617C39.744 34.266 39.6177 34.2748 39.471 34.0939C39.2976 33.8839 39.2696 33.5397 39.4106 33.3425C39.5516 33.1453 39.6852 33.1297 39.8327 33.2897ZM39.1335 33.4432C39.1703 33.5707 39.001 33.9488 38.8651 34.0203C38.7219 34.0984 38.7962 34.1644 39.0207 34.1526C39.2032 34.139 39.2166 34.1535 39.1028 34.1979C39.0246 34.2297 38.8764 34.2587 38.7646 34.2541L38.5756 34.2535L38.7972 33.9685C39.0923 33.5955 39.0796 33.392 38.7716 33.3935C38.5055 33.3967 38.479 33.3606 38.699 33.2856C38.9117 33.2172 39.0912 33.2805 39.1335 33.4432ZM38.2798 33.6115C38.2945 33.7661 38.3453 33.8941 38.3872 33.8958C38.4431 33.8981 38.4417 33.933 38.3759 34.0004C38.3248 34.0543 38.2998 34.1513 38.3255 34.2083C38.3442 34.265 38.3282 34.3134 38.2933 34.312C38.2514 34.3103 38.226 34.2462 38.2294 34.1624C38.2345 34.0366 38.2004 34.0142 37.9896 34.0336C37.8563 34.0422 37.7451 34.0237 37.7465 33.9888C37.7505 33.8909 38.1304 33.3254 38.1933 33.328C38.2213 33.3291 38.2581 33.4566 38.2798 33.6115ZM37.185 33.511C37.2911 33.6553 37.3339 33.979 37.2773 34.1657C37.2202 34.3663 36.9367 34.4528 36.7881 34.3208C36.6531 34.1963 36.6003 33.7742 36.7064 33.5755C36.7976 33.3972 37.0721 33.3594 37.185 33.511ZM37.6661 34.2445C37.6652 34.2654 37.6359 34.2992 37.5931 34.3185C37.5573 34.338 37.5229 34.3226 37.5243 34.2877C37.526 34.2458 37.5624 34.2123 37.5973 34.2137C37.6393 34.2154 37.6667 34.2305 37.6661 34.2445ZM40.0468 35.0832C40.0244 35.1173 39.9251 35.1483 39.8273 35.1443C39.7085 35.1394 39.6582 35.1724 39.6539 35.2772C39.6499 35.375 39.6971 35.419 39.8089 35.4235C39.8998 35.4272 40.0032 35.4664 40.0501 35.5173C40.1708 35.6482 40.132 35.9126 39.9819 35.9905C39.8107 36.0675 39.5519 36.064 39.5553 35.9801C39.5567 35.9452 39.6132 35.9335 39.6892 35.9576C39.7585 35.9744 39.8648 35.9437 39.9302 35.8834C40.0972 35.7362 39.9808 35.5005 39.7502 35.4911C39.6034 35.4851 39.5769 35.4491 39.5837 35.2814C39.5903 35.1206 39.6275 35.0662 39.7541 35.0503C40.0359 35.0058 40.0915 35.015 40.0468 35.0832ZM39.1591 35.3971C39.1503 35.6137 39.1757 35.6777 39.2732 35.6887C39.3431 35.6915 39.3562 35.7131 39.3064 35.732C39.257 35.744 39.2116 35.8262 39.2082 35.91C39.1955 36.0495 39.1883 36.0562 39.1092 35.934C39.0629 35.8691 38.9394 35.8081 38.8346 35.8038C38.611 35.7947 38.6121 35.7668 38.8231 35.3974C39.0411 35.0283 39.1741 35.0267 39.1591 35.3971ZM38.4452 35.396C38.454 35.5224 38.4059 35.6744 38.3102 35.7895C38.104 36.0401 38.1096 36.0753 38.3626 36.0506C38.4822 36.0345 38.5725 36.0522 38.5714 36.0801C38.5702 36.1081 38.429 36.1373 38.2538 36.1442C38.0785 36.1511 37.9388 36.1454 37.9393 36.1314C37.9396 36.1244 38.0431 35.9886 38.1615 35.8325C38.4124 35.5137 38.4371 35.4237 38.2817 35.2844C38.2007 35.2111 38.1448 35.2088 38.0374 35.2675C37.9656 35.3135 37.9024 35.318 37.9038 35.283C37.9075 35.1922 38.0493 35.149 38.2583 35.1715C38.3975 35.1911 38.4377 35.2348 38.4452 35.396ZM37.2969 35.4053C37.4089 35.5779 37.4242 36.0615 37.3238 36.1204C37.288 36.1399 37.2655 36.006 37.2726 35.8313C37.2828 35.5798 37.2519 35.4805 37.1373 35.3709C37.0222 35.2752 37.0097 35.2397 37.0865 35.2428C37.1494 35.2454 37.2444 35.3192 37.2969 35.4053ZM37.7303 36.1089C37.7288 36.1438 37.6925 36.1774 37.6506 36.1757C37.6156 36.1742 37.6031 36.1387 37.6254 36.1046C37.6481 36.0636 37.6842 36.037 37.7052 36.0379C37.7191 36.0385 37.732 36.067 37.7303 36.1089ZM4.82887 36.2199C4.9464 37.2886 5.04371 37.6495 5.21841 37.6566C5.29527 37.6597 5.47542 37.877 5.48513 37.9824C5.48928 38.0526 5.00786 38.187 4.28857 38.3187L3.72443 38.4218L3.51986 37.9445C3.4113 37.6881 3.31643 37.4393 3.31813 37.3973C3.31541 37.2922 4.59397 35.1115 4.65686 35.114C4.68481 35.1151 4.76247 35.6153 4.82887 36.2199ZM39.9918 36.9498C39.7598 36.9754 39.6931 37.2386 39.9167 37.2477C40.0775 37.2542 40.266 37.4369 40.2603 37.5767C40.2538 37.7374 40.0379 37.8826 39.8425 37.8676C39.6611 37.8533 39.6681 37.8535 39.8873 37.7995C40.0358 37.7635 40.1155 37.6967 40.1189 37.6129C40.1257 37.4452 39.957 37.2913 39.8149 37.3416C39.7299 37.3661 39.7107 37.3233 39.7184 37.1347C39.7277 36.9041 39.7423 36.8907 39.9586 36.9064C40.1677 36.9289 40.1677 36.9289 39.9918 36.9498ZM39.3309 37.1959C39.3261 37.3147 39.362 37.4631 39.4154 37.5283C39.5279 37.6869 39.4588 37.838 39.2309 37.9338C39.0886 37.991 39.0327 37.9887 38.9659 37.909C38.8989 37.8363 38.9065 37.8226 38.9892 37.8539C39.1269 37.9085 39.3411 37.8052 39.3462 37.6795C39.3485 37.6236 39.2684 37.5293 39.1658 37.4692C39.0359 37.3939 39.0093 37.3578 39.0935 37.3542C39.2542 37.3608 39.3222 37.2375 39.2225 37.1075C39.1762 37.0426 39.0862 37.018 39.0012 37.0425C38.9092 37.0668 38.8815 37.0586 38.919 36.9972C38.9487 36.9564 39.0546 36.9327 39.1519 36.9506C39.3118 36.9781 39.3383 37.0142 39.3309 37.1959ZM38.5304 37.0864C38.5768 37.1512 38.5871 37.2426 38.5493 37.3111C38.4958 37.4209 38.4891 37.4136 38.4738 37.273C38.4521 37.1182 38.4044 37.0882 38.145 37.0987C38.0256 37.1078 38.0262 37.0938 38.1123 37.0414C38.2633 36.9425 38.4374 36.9636 38.5304 37.0864ZM38.5419 37.4928C38.7252 37.6332 38.6439 37.9099 38.4029 37.9841C38.2612 38.0273 38.1916 38.0175 38.1243 37.9518C38.0575 37.872 38.0718 37.8656 38.1892 37.9054C38.3686 37.9687 38.5853 37.8025 38.5357 37.6465C38.51 37.5895 38.4351 37.5374 38.3652 37.5346C38.2953 37.5317 38.2339 37.4943 38.2353 37.4593C38.2393 37.3615 38.3994 37.382 38.5419 37.4928ZM37.901 37.9357C37.9205 37.9715 37.9051 38.0058 37.8702 38.0044C37.8282 38.0027 37.7947 37.9663 37.7961 37.9314C37.7978 37.8895 37.813 37.8621 37.8269 37.8627C37.8479 37.8635 37.8817 37.8929 37.901 37.9357Z" fill="white"/>
<path d="M51.6924 8.23911C51.4869 8.30075 51.6673 9.02902 51.8839 9.03783C52.0376 9.04408 52.0991 8.7386 51.9829 8.4959C51.8671 8.24622 51.8129 8.20202 51.6924 8.23911Z" fill="white"/>
<path d="M49.3505 9.04554C49.2808 9.21069 49.4302 9.49673 49.5909 9.50327C49.7656 9.51037 49.8344 9.36619 49.7882 9.12633C49.7584 8.99913 49.7044 8.94794 49.5717 8.94254C49.4808 8.93885 49.381 8.98378 49.3505 9.04554Z" fill="white"/>
<path d="M44.6926 9.98393C44.5649 10.0277 44.5643 10.3847 44.6859 10.4946C44.7398 10.5458 44.8367 10.5707 44.8938 10.5451C45.0216 10.5013 45.0497 10.1524 44.9358 10.0288C44.8486 9.93428 44.8277 9.93343 44.6926 9.98393Z" fill="white"/>
<path d="M45.4881 9.8689C45.4259 10.0204 45.4463 10.0352 45.637 9.99395C45.7217 9.97639 45.7941 9.91635 45.7961 9.86743C45.8018 9.72768 45.5424 9.73813 45.4881 9.8689Z" fill="white"/>
<path d="M43.9094 10.4908C43.8014 10.5634 43.7928 10.6051 43.8528 10.6775C43.9601 10.7939 44.1521 10.7177 44.1592 10.543C44.1661 10.3753 44.1035 10.3657 43.9094 10.4908Z" fill="white"/>
<path d="M50.3898 11.0559C50.2763 11.0933 50.2628 11.2538 50.358 11.3206C50.4466 11.3802 50.6412 11.2412 50.6464 11.1154C50.6503 11.0175 50.5534 10.9926 50.3898 11.0559Z" fill="white"/>
<path d="M49.5118 10.9415C49.4827 10.9683 49.4592 11.0304 49.4572 11.0793C49.4529 11.1841 49.7912 11.1279 49.8237 11.0172C49.848 10.9342 49.5845 10.8745 49.5118 10.9415Z" fill="white"/>
<path d="M45.8862 11.7666C45.8557 11.8284 45.8531 11.8913 45.8732 11.9131C45.9403 11.9858 46.2106 11.8778 46.1861 11.7928C46.1496 11.6583 45.9402 11.6428 45.8862 11.7666Z" fill="white"/>
<path d="M43.8761 12.5191C43.8103 12.5864 43.8156 12.6286 43.8896 12.7016C44.0181 12.8118 44.1398 12.7468 44.1472 12.5651C44.1534 12.4114 44.0005 12.3841 43.8761 12.5191Z" fill="white"/>
<path d="M48.8648 13.0848C48.7481 13.1991 48.814 13.2998 48.9832 13.2716C49.0816 13.2616 49.1537 13.2086 49.1414 13.1661C49.1172 13.0741 48.9375 13.0178 48.8648 13.0848Z" fill="white"/>
<path d="M46.1951 13.9789C46.0732 14.051 46.1334 14.2914 46.2679 14.2549C46.3602 14.2236 46.4423 13.926 46.3514 13.9223C46.3235 13.9212 46.2525 13.9463 46.1951 13.9789Z" fill="white"/>
<path d="M43.9118 14.2145C43.8424 14.3727 43.8835 14.3953 44.1024 14.3482C44.321 14.3081 44.3197 14.1681 44.1045 14.1243C44.0212 14.107 43.9426 14.1458 43.9118 14.2145Z" fill="white"/>
<path d="M49.3044 15.3437C49.235 15.5019 49.3839 15.6269 49.5212 15.5205C49.5791 15.4739 49.6314 15.392 49.6334 15.3431C49.6388 15.2103 49.366 15.2062 49.3044 15.3437Z" fill="white"/>
<path d="M47.653 15.3459C47.6239 15.3727 47.5984 15.4837 47.5942 15.5885C47.5839 15.8401 47.7815 15.9741 47.9755 15.849C48.0838 15.7694 48.0997 15.7211 48.0506 15.5511C47.9884 15.3596 47.7691 15.2457 47.653 15.3459Z" fill="white"/>
<path d="M53.0066 15.8513C52.7925 15.9546 52.7925 15.9546 52.9503 16.031C53.0738 16.092 53.1233 16.08 53.2114 15.9786C53.4176 15.728 53.3494 15.6832 53.0066 15.8513Z" fill="white"/>
<path d="M45.7169 15.8209C45.655 15.9654 45.6891 15.9878 45.9144 15.955C46.0341 15.9388 46.0919 15.8922 46.0666 15.8282C46.023 15.6934 45.7782 15.6904 45.7169 15.8209Z" fill="white"/>
<path d="M53.7092 16.1657C53.5632 16.3138 53.4165 16.6508 53.469 16.7369C53.5994 16.9732 54.0628 16.5931 54.0773 16.2367C54.0861 16.0201 53.8918 15.9772 53.7092 16.1657Z" fill="white"/>
<path d="M44 16.1785C43.8465 16.3402 43.9734 16.6604 44.1901 16.6692C44.3298 16.6749 44.3734 16.6346 44.3937 16.4815C44.4492 16.1478 44.1981 15.9556 44 16.1785Z" fill="white"/>
<path d="M48.812 17.1373C48.7499 17.2888 48.8044 17.326 49.016 17.2856C49.1362 17.2555 49.1871 17.2086 49.1617 17.1446C49.1182 17.0098 48.8733 17.0068 48.812 17.1373Z" fill="white"/>
<path d="M52.0129 17.2529C51.9541 17.3205 51.9585 17.3836 52.0314 17.4846C52.1172 17.6141 52.1311 17.6146 52.2475 17.5074C52.3493 17.4135 52.358 17.3719 52.2845 17.2849C52.1851 17.1479 52.1225 17.1383 52.0129 17.2529Z" fill="white"/>
<path d="M51.7092 17.6672C51.5772 17.8158 51.6612 17.9872 51.8708 17.9958C52.0315 18.0023 52.0536 17.9752 52.0392 17.8136C52.0273 17.5892 51.8482 17.5189 51.7092 17.6672Z" fill="white"/>
<path d="M52.5387 17.8975C52.4567 18.0201 52.3867 18.1923 52.383 18.2831C52.373 18.5277 52.6484 18.4689 52.863 18.1837C53.0633 17.9048 53.0562 17.7365 52.8477 17.7001C52.7364 17.6816 52.6503 17.734 52.5387 17.8975Z" fill="white"/>
<path d="M46.5101 17.616C46.4228 17.6964 46.4467 17.9704 46.547 18.0864C46.7551 18.3049 47.0189 18.0146 46.8768 17.7219C46.8123 17.5863 46.6049 17.5218 46.5101 17.616Z" fill="white"/>
<path d="M43.8987 18.1691C43.8341 18.2084 43.7742 18.304 43.7705 18.3948C43.7566 18.7372 44.1858 18.8527 44.2414 18.519C44.2787 18.2895 44.0771 18.0853 43.8987 18.1691Z" fill="white"/>
<path d="M48.7667 19.4448C48.6713 19.5529 48.7149 19.6877 48.8616 19.6936C48.9664 19.6979 49.0649 19.5129 49.006 19.4125C48.9538 19.3194 48.8694 19.33 48.7667 19.4448Z" fill="white"/>
<path d="M46.203 19.6973C46.0721 19.818 46.0622 19.8876 46.1524 20.0802C46.2431 20.2589 46.467 20.261 46.5719 20.0903C46.7298 19.8237 46.4211 19.4962 46.203 19.6973Z" fill="white"/>
<path d="M49.0977 21.32C49.0261 21.3591 48.967 21.4337 48.9651 21.4826C48.9594 21.6224 49.2322 21.6264 49.2938 21.489C49.3559 21.3375 49.2478 21.2421 49.0977 21.32Z" fill="white"/>
<path d="M47.6882 21.3389C47.4455 21.455 47.5612 21.8796 47.8407 21.891C48.0014 21.8975 48.0706 21.7464 48.0237 21.5205C47.9828 21.3228 47.8529 21.2476 47.6882 21.3389Z" fill="white"/>
<path d="M45.4066 21.8973C45.3378 22.0415 45.3718 22.0639 45.6041 22.0313C45.8295 21.9985 45.8281 21.8584 45.606 21.8144C45.5157 21.7967 45.4304 21.8283 45.4066 21.8973Z" fill="white"/>
<path d="M13.5781 20.8916C13.3794 21.1285 13.3585 21.4706 13.5402 21.478C13.7638 21.4871 14.021 21.0146 13.9035 20.8069C13.8247 20.6777 13.747 20.6955 13.5781 20.8916Z" fill="white"/>
<path d="M43.9098 22.1669C43.7789 22.2875 43.8041 22.3586 43.9788 22.3657C44.1884 22.3742 44.2611 22.3071 44.1681 22.1844C44.0748 22.0686 44.0189 22.0663 43.9098 22.1669Z" fill="white"/>
<path d="M46.1571 23.7344C46.1059 23.7883 46.0827 23.8433 46.1028 23.8652C46.1699 23.9379 46.4953 23.8531 46.4707 23.7681C46.4336 23.6476 46.2525 23.6263 46.1571 23.7344Z" fill="white"/>
<path d="M12.8558 22.4557C12.7977 22.5093 12.7081 22.6457 12.6541 22.7695C12.5696 22.955 12.5676 23.0039 12.6547 23.0985C12.7486 23.2003 12.7768 23.1944 12.915 23.0671C13.0822 22.9129 13.1844 22.6371 13.1281 22.4738C13.0846 22.339 12.9937 22.3353 12.8558 22.4557Z" fill="white"/>
<path d="M14.551 23.3029C14.4969 23.4267 14.562 23.5484 14.6948 23.5538C14.8345 23.5594 14.9129 23.3527 14.7972 23.271C14.6609 23.1814 14.5977 23.1859 14.551 23.3029Z" fill="white"/>
<path d="M14.325 23.7068C14.2553 23.8719 14.3329 24.029 14.4937 24.0356C14.6125 24.0404 14.6418 24.0066 14.6271 23.852C14.615 23.6346 14.402 23.5349 14.325 23.7068Z" fill="white"/>
<path d="M11.0566 25.9386C10.9038 26.2544 10.9185 26.409 11.1142 26.4169C11.2679 26.4232 11.4699 26.1024 11.4807 25.8369C11.4861 25.7041 11.4529 25.6608 11.3481 25.6565C11.2432 25.6523 11.156 25.7327 11.0566 25.9386Z" fill="white"/>
<path d="M12.9548 26.7377C12.8826 26.7907 12.7825 26.8427 12.7397 26.8619C12.69 26.8809 12.6955 26.9161 12.7634 26.9679C12.9196 27.0862 12.9694 27.0672 13.0542 26.8747C13.1474 26.6475 13.1273 26.6257 12.9548 26.7377Z" fill="white"/>
<path d="M10.305 27.3704C10.1445 27.5319 10.033 27.8633 10.098 27.985C10.1765 28.1211 10.3398 28.0648 10.4889 27.8399C10.6674 27.5812 10.6806 27.4277 10.5524 27.3105C10.4784 27.2375 10.4216 27.2562 10.305 27.3704Z" fill="white"/>
<path d="M11.3079 28.0205C11.0716 28.1509 11.0553 28.2063 11.242 28.2628C11.3457 28.2951 11.4103 28.2557 11.4934 28.1051C11.6216 27.8793 11.5872 27.8639 11.3079 28.0205Z" fill="white"/>
<path d="M11.9848 28.3993C11.7837 28.5242 11.787 28.6153 11.9966 28.6238C12.0595 28.6264 12.1535 28.5532 12.1994 28.4571C12.3057 28.2514 12.2571 28.2424 11.9848 28.3993Z" fill="white"/>
<path d="M12.7054 28.5892C12.5448 28.7506 12.4334 29.0821 12.4984 29.2037C12.5769 29.3399 12.7402 29.2835 12.8893 29.0586C13.0678 28.7999 13.081 28.6465 12.9528 28.5293C12.8788 28.4563 12.822 28.4749 12.7054 28.5892Z" fill="white"/>
<path d="M11.2725 29.7617C11.159 29.7991 11.1427 30.0294 11.2446 30.1036C11.2857 30.1262 11.3707 30.1017 11.4361 30.0414C11.538 29.9475 11.5391 29.9196 11.4586 29.8323C11.4047 29.7811 11.3153 29.7425 11.2725 29.7617Z" fill="white"/>
<path d="M10.9937 30.2345C10.8483 30.3686 10.9183 30.5394 11.1209 30.5476C11.2537 30.553 11.2901 30.5195 11.2955 30.3867C11.3037 30.1841 11.1391 30.1004 10.9937 30.2345Z" fill="white"/>
<path d="M39.5379 33.3262C39.3198 33.5273 39.5211 34.2564 39.7451 34.0835C39.8824 33.9771 39.8948 33.5017 39.7604 33.3632C39.633 33.225 39.647 33.2256 39.5379 33.3262Z" fill="white"/>
<path d="M38.0184 33.6653C37.8542 33.9175 37.86 33.9458 38.0277 33.9526C38.1395 33.9571 38.1695 33.9094 38.1774 33.7137C38.1828 33.5809 38.1804 33.4689 38.1664 33.4683C38.1594 33.468 38.0928 33.5563 38.0184 33.6653Z" fill="white"/>
<path d="M36.8345 33.5311C36.7548 33.5979 36.7581 34.032 36.8287 34.1888C36.9644 34.4673 37.1733 34.3218 37.1886 33.9445C37.202 33.6161 36.9947 33.3767 36.8345 33.5311Z" fill="white"/>
<path d="M38.862 35.496L38.7266 35.7285L38.9013 35.7356C39.048 35.7416 39.0774 35.7078 39.0842 35.5401C39.0961 35.2466 39.0128 35.2292 38.862 35.496Z" fill="white"/>
<path d="M41.492 8.99941C40.69 9.09978 38.839 9.52147 37.6631 9.86562C36.5865 10.1788 34.9928 10.8139 32.768 11.8224L31.5202 12.3876L31.4672 13.8623C31.4342 14.6729 31.4273 15.3585 31.4405 15.38C31.481 15.4167 32.5218 15.123 33.0693 14.9143C33.2826 14.832 33.4778 14.679 33.6543 14.4692C33.7945 14.2929 34.1998 13.7914 34.5464 13.3575C34.9 12.924 35.3246 12.4653 35.484 12.3318C35.896 12.0126 36.5849 11.7676 37.9122 11.4856C39.7979 11.0723 40.012 10.969 40.8598 10.0866C41.1379 9.78993 41.5172 9.41339 41.7065 9.23211C41.9026 9.0581 42.0483 8.91704 42.034 8.92346C42.0268 8.93016 41.7805 8.96214 41.492 8.99941Z" fill="white"/>
<path d="M11.8602 30.2621C11.809 30.316 11.8001 30.3646 11.842 30.3664C11.8769 30.3678 11.9488 30.3217 12 30.2678C12.0512 30.2139 12.0601 30.1652 12.0182 30.1635C11.9833 30.1621 11.9114 30.2082 11.8602 30.2621Z" fill="white"/>
</svg>
