<svg width="67" height="67" viewBox="0 0 67 67" fill="none" xmlns="http://www.w3.org/2000/svg">
<mask id="mask0_299_686" style="mask-type:luminance" maskUnits="userSpaceOnUse" x="0" y="0" width="67" height="67">
<path d="M0.515625 0.476562H66.5156V66.4766H0.515625V0.476562Z" fill="white"/>
</mask>
<g mask="url(#mask0_299_686)">
<path d="M59.121 0.476562C48.1512 0.476562 33.4318 8.0031 23.5479 20.9419H15.354C9.43261 20.9419 6.03826 25.3618 3.70249 30.0347L0.574219 36.2913H15.354L23.0273 43.966L30.702 51.6392V66.419L36.9585 63.2922C41.6315 60.955 46.0513 57.5606 46.0513 51.6392V43.4453C58.9901 33.5614 66.5167 18.842 66.5167 7.87222V0.476562H59.121ZM46.0513 15.8259C48.8776 15.8259 51.1673 18.1171 51.1673 20.9419C51.1673 23.7681 48.8776 26.0579 46.0513 26.0579C43.2251 26.0579 40.9354 23.7681 40.9354 20.9419C40.9354 18.1171 43.2251 15.8259 46.0513 15.8259ZM12.7953 46.5232L10.2366 49.0819C6.54166 52.7769 5.12064 61.8726 5.12064 61.8726C5.12064 61.8726 13.8079 60.8601 17.9113 56.7566L20.47 54.1979L12.7953 46.5232Z" fill="white"/>
</g>
</svg>
