<svg width="67" height="72" viewBox="0 0 67 72" fill="none" xmlns="http://www.w3.org/2000/svg">
<mask id="mask0_299_691" style="mask-type:luminance" maskUnits="userSpaceOnUse" x="7" y="0" width="60" height="41">
<path d="M7.02734 0.976562L66.5168 0.976563V40.9802H7.02734V0.976562Z" fill="white"/>
</mask>
<g mask="url(#mask0_299_691)">
<path d="M8.53915 40.7207C8.53915 40.7207 13.291 28.5738 24.6601 23.2469C24.6601 23.2469 25.5852 17.9027 26.9704 17.3666V25.109C26.9704 25.109 27.9005 18.1679 29.7507 14.7031V24.5786C29.7507 24.5786 30.6758 17.1014 32.526 13.3714V21.379C32.526 21.379 33.4511 14.4379 43.6525 14.1727C43.6525 14.1727 43.6525 11.2383 48.7532 12.5701L66.4969 12.7142C66.4969 12.7142 50.2647 2.30829 27.0816 9.51458C27.0816 9.51458 26.1565 1.50695 12.0121 0.976562C12.0121 0.976562 18.2754 6.85114 14.5548 12.7142C14.5548 12.6969 5.05612 25.7835 8.53915 40.7207Z" fill="#FEFEFE"/>
</g>
<mask id="mask1_299_691" style="mask-type:luminance" maskUnits="userSpaceOnUse" x="0" y="24" width="57" height="48">
<path d="M0.515625 24.7461H56.2036V71.8176H0.515625L0.515625 24.7461Z" fill="white"/>
</mask>
<g mask="url(#mask1_299_691)">
<path d="M34.8389 34.1845C24.6426 34.4497 31.1385 25.6465 31.1385 25.6465C16.0639 27.2434 10.0331 42.4631 10.0331 42.4631C11.6558 51.0011 31.831 47.8073 31.831 47.8073C41.5623 50.7359 31.5985 58.4784 31.5985 58.4784H3.54219L0.529297 71.5477H38.5544C48.9833 71.8187 56.8694 56.0628 55.9392 42.9935C55.0141 29.9241 34.8389 34.1845 34.8389 34.1845Z" fill="#FEFEFE"/>
</g>
</svg>
